<?xml version="1.0" standalone="no"?>
<!DOCTYPE svg PUBLIC "-//W3C//DTD SVG 1.1//EN" "http://www.w3.org/Graphics/SVG/1.1/DTD/svg11.dtd" >
<svg xmlns="http://www.w3.org/2000/svg">
<metadata></metadata>
<defs>
<font id="moskthin_100" horiz-adv-x="1171" >
<font-face units-per-em="2048" ascent="1638" descent="-410" />
<missing-glyph horiz-adv-x="491" />
<glyph horiz-adv-x="0" />
<glyph horiz-adv-x="682" />
<glyph unicode=" "  horiz-adv-x="491" />
<glyph unicode="&#x09;" horiz-adv-x="491" />
<glyph unicode="&#xa0;" horiz-adv-x="491" />
<glyph unicode="!" horiz-adv-x="282" d="M61 78q0 33 21.5 55.5t56.5 22.5q33 0 56.5 -22.5t23.5 -55.5t-23.5 -55.5t-56.5 -22.5q-35 0 -56.5 22.5t-21.5 55.5zM111 379v1059h110l-18 -1102z" />
<glyph unicode="&#x22;" horiz-adv-x="563" d="M41 1112q123 66 125 168q-33 0 -53.5 26.5t-20.5 51.5q0 33 20.5 56.5t57.5 23.5q35 0 57.5 -28t22.5 -60q0 -94 -46 -171t-130 -118zM293 1112q123 66 125 168q-33 0 -53.5 26.5t-20.5 51.5q0 33 20.5 56.5t57.5 23.5q35 0 57.5 -28t22.5 -60q0 -94 -46 -171t-130 -118z " />
<glyph unicode="$" horiz-adv-x="1093" d="M102 1096q0 117 78 202.5t215 114.5v199l82 20v-211q20 4 47 4q47 0 90 -6v199l84 20v-233q90 -20 170 -59l-45 -74q-74 33 -137 51t-158 18q-143 0 -231 -73.5t-88 -182.5q0 -113 90 -195.5t281 -162.5q193 -80 281.5 -175t88.5 -230q0 -113 -64.5 -197t-187.5 -123 v-229h-84v211q-66 -10 -129 -11h-8v-200h-82v207q-88 10 -171.5 33t-110.5 46l30 80q66 -33 156 -56.5t184 -23.5q113 0 196 37t125 98.5t42 133.5q0 109 -89 188.5t-282 159.5q-188 78 -280.5 177t-92.5 243z" />
<glyph unicode="%" horiz-adv-x="1656" d="M82 1090q0 104 41 183t111.5 122t158.5 43q141 0 226.5 -92.5t85.5 -255.5q0 -102 -42 -181.5t-113 -122.5t-155 -43q-139 0 -226 92.5t-87 254.5zM178 1090q0 -123 63.5 -197t153.5 -74q88 0 150.5 72t62.5 199t-59.5 199.5t-155.5 72.5q-55 0 -104 -32t-80 -93 t-31 -147zM446 0l631 1454l97 -8l-633 -1454zM952 344q0 104 41 183t112 122t159 43q141 0 226 -92t85 -256q0 -102 -42 -181t-112.5 -122t-154.5 -43q-139 0 -226.5 92t-87.5 254zM1049 344q0 -123 63.5 -196.5t153.5 -73.5q88 0 150.5 71.5t62.5 198.5t-59.5 198.5 t-155.5 71.5q-86 0 -150.5 -71.5t-64.5 -198.5z" />
<glyph unicode="&#x26;" horiz-adv-x="1325" d="M102 410q0 131 59.5 240.5t162.5 176.5q-76 115 -76 242q0 96 45 178t125 130t176 48q94 0 174 -23.5t135 -55.5l-41 -72q-76 37 -122 52t-128 15q-76 0 -137 -36.5t-96 -97t-35 -130.5q0 -104 54.5 -193t168.5 -198l406 -379q51 86 78.5 189.5t27.5 197.5l74 -22 q0 -113 -29.5 -223.5t-85.5 -202.5l205 -191l-51 -55l-199 180q-72 -96 -177 -151.5t-230 -55.5q-135 0 -246 53.5t-174.5 151.5t-63.5 232zM199 414q0 -104 56 -186.5t146.5 -126.5t190.5 -44t186 49.5t150 133.5l-432 395q-82 74 -123 125q-86 -61 -130 -150.5t-44 -195.5 z" />
<glyph unicode="'" horiz-adv-x="311" d="M41 1112q123 66 125 168q-33 0 -53.5 26.5t-20.5 51.5q0 33 20.5 56.5t57.5 23.5q35 0 57.5 -28t22.5 -60q0 -94 -46 -171t-130 -118z" />
<glyph unicode="(" horiz-adv-x="489" d="M102 655q0 176 61.5 375t182.5 352l82 -36q-57 -61 -108.5 -186.5t-82 -265t-30.5 -237.5q0 -100 30.5 -241.5t82 -268.5t108.5 -186l-82 -37q-121 156 -182.5 354.5t-61.5 376.5z" />
<glyph unicode=")" horiz-adv-x="489" d="M61 -39q55 59 106.5 185t83.5 267.5t32 239.5t-32 238.5t-83 266.5t-107 188l82 36q119 -156 181.5 -355.5t62.5 -371.5q0 -176 -62.5 -374.5t-181.5 -356.5z" />
<glyph unicode="*" horiz-adv-x="641" d="M20 1337l25 66l236 -64v246h71v-246l242 64l27 -66l-238 -59l162 -244l-64 -33l-162 232l-151 -232l-74 33l162 244z" />
<glyph unicode="+" horiz-adv-x="1079" d="M61 598h426v496l101 -7v-489h409l21 -76h-430v-514l-101 8v506h-409z" />
<glyph unicode="," horiz-adv-x="311" d="M41 -170q123 66 125 168q-33 0 -53.5 26.5t-20.5 51.5q0 33 20.5 56.5t57.5 23.5q35 0 57.5 -28t22.5 -60q0 -94 -46 -171t-130 -118z" />
<glyph unicode="-" horiz-adv-x="636" d="M61 598h498l16 -80h-497z" />
<glyph unicode="." horiz-adv-x="280" d="M61 78q0 33 21.5 55.5t56.5 22.5q33 0 56.5 -22.5t23.5 -55.5t-23.5 -55.5t-56.5 -22.5q-35 0 -56.5 22.5t-21.5 55.5z" />
<glyph unicode="/" horiz-adv-x="768" d="M20 0l631 1454l97 -8l-633 -1454z" />
<glyph unicode="0" horiz-adv-x="1167" d="M82 590q0 170 64.5 306t179 213t260.5 77q143 0 256.5 -77t178 -212t64.5 -305q0 -176 -64.5 -317.5t-178 -221.5t-256.5 -80q-145 0 -260 79t-179.5 220.5t-64.5 317.5zM186 596q0 -154 51.5 -276.5t142.5 -192.5t206 -70q113 0 203 68t141 188.5t51 272.5 q0 147 -51 265t-141 184.5t-203 66.5q-115 0 -206 -65.5t-142.5 -180.5t-51.5 -260z" />
<glyph unicode="1" horiz-adv-x="614" d="M20 985l359 174h72v-1159h-101v1040l-293 -129z" />
<glyph unicode="2" horiz-adv-x="962" d="M51 0v102l461 385q139 117 189.5 193t50.5 174q0 109 -87 179.5t-221 70.5q-98 0 -172.5 -25.5t-148.5 -68.5l-45 69q76 45 165 76t206 31t210 -43t146 -118t53 -169q0 -113 -74.5 -220.5t-230.5 -234.5l-399 -321h751l17 -80h-871z" />
<glyph unicode="3" horiz-adv-x="915" d="M0 -49l68 69q80 -47 151.5 -69.5t175.5 -22.5q82 0 157 37t121 102.5t46 145.5q0 137 -99.5 215t-304.5 78h-36l-21 80h70q170 0 268 73.5t98 192.5q0 61 -34.5 119.5t-99 94.5t-146.5 36q-174 0 -328 -101l-63 64q190 121 397 121q121 0 207 -46t129 -122t43 -164 q0 -106 -66.5 -189t-167.5 -116q117 -27 187.5 -118t70.5 -214q0 -104 -54 -189t-152.5 -134.5t-227.5 -49.5q-106 0 -207.5 31t-181.5 76z" />
<glyph unicode="4" horiz-adv-x="1048" d="M20 256l691 913h57v-938h240l-17 -79h-223v-293h-100v293h-629zM123 231h545v732z" />
<glyph unicode="5" horiz-adv-x="1005" d="M82 -53l49 73q156 -92 328 -92q168 0 263 93.5t95 244.5q0 147 -85 236.5t-226 89.5q-76 0 -149.5 -36t-118.5 -85h-74l31 688h649l-6 -80h-551l-23 -487q53 41 116.5 62.5t117.5 21.5q213 0 319.5 -116t106.5 -294q0 -117 -55.5 -212t-162 -152.5t-255.5 -57.5 q-176 0 -369 103z" />
<glyph unicode="6" horiz-adv-x="1007" d="M82 532q0 219 99.5 385t256 262.5t330.5 118.5l37 -81q-127 -6 -262 -80t-234.5 -203t-124.5 -291q141 150 334 150q125 0 218 -56.5t141.5 -149t48.5 -198.5t-52.5 -202.5t-144.5 -155t-209 -58.5q-199 0 -318.5 146.5t-119.5 412.5zM178 524q4 -223 91 -345t247 -122 q92 0 162 46.5t106.5 121t36.5 154.5q0 141 -82 235.5t-221 94.5q-100 0 -194.5 -55.5t-145.5 -129.5z" />
<glyph unicode="7" horiz-adv-x="878" d="M20 1159h773l45 -59l-492 -1241l-94 41l485 1179h-700z" />
<glyph unicode="8" horiz-adv-x="1026" d="M82 346q0 74 38 147.5t102.5 129t139.5 71.5q-98 39 -160.5 116t-62.5 175q0 141 95.5 236.5t279.5 95.5q125 0 209 -47t124 -123t40 -162q0 -96 -64.5 -173t-156.5 -118q113 -27 195.5 -125t82.5 -223q0 -102 -48 -186t-145.5 -135.5t-236.5 -51.5q-211 0 -321.5 105.5 t-110.5 267.5zM186 332q0 -76 43 -139.5t118 -99.5t167 -36q88 0 163 36t119 98.5t44 140.5q0 121 -85 209t-241 106q-158 -18 -243 -105t-85 -210zM242 991q0 -90 73.5 -162.5t198.5 -91.5q123 18 197.5 93t74.5 161q0 100 -71.5 171t-206.5 71q-129 0 -197.5 -71.5 t-68.5 -170.5z" />
<glyph unicode="9" horiz-adv-x="1007" d="M82 768q0 106 52 202.5t144.5 155t208.5 58.5q199 0 319 -146.5t120 -412.5q0 -219 -99.5 -385t-256 -262.5t-330.5 -118.5l-37 82q127 6 262 79.5t234.5 202.5t123.5 291q-141 -150 -334 -149q-125 0 -218 56t-141 148.5t-48 198.5zM186 778q0 -141 82 -235t221 -94 q98 0 192.5 55t147.5 129q-6 225 -93 346t-244 121q-92 0 -162 -46t-107 -121t-37 -155z" />
<glyph unicode=":" horiz-adv-x="280" d="M61 172q0 33 21.5 55.5t56.5 22.5q33 0 56.5 -22.5t23.5 -55.5t-23.5 -55.5t-56.5 -22.5q-35 0 -56.5 22.5t-21.5 55.5zM61 825q0 33 21.5 55.5t56.5 22.5q33 0 56.5 -22.5t23.5 -55.5t-23.5 -55t-56.5 -22q-35 0 -56.5 22.5t-21.5 54.5z" />
<glyph unicode=";" horiz-adv-x="311" d="M41 -76q123 66 125 168q-33 0 -53.5 26.5t-20.5 51.5q0 33 20.5 56.5t57.5 23.5q35 0 57.5 -27.5t22.5 -60.5q0 -94 -46 -171t-130 -118zM92 825q0 33 21.5 55.5t56.5 22.5q33 0 56.5 -22.5t23.5 -55.5t-23.5 -55t-56.5 -22q-35 0 -56.5 22.5t-21.5 54.5z" />
<glyph unicode="&#x3c;" horiz-adv-x="659" d="M61 473v57l510 433l47 -70l-462 -391l462 -391l-47 -72z" />
<glyph unicode="=" horiz-adv-x="1017" d="M61 367h881l14 -80h-878zM61 760h881l14 -80h-878z" />
<glyph unicode="&#x3e;" horiz-adv-x="659" d="M41 109l463 391l-463 391l47 72l510 -435v-57l-510 -432z" />
<glyph unicode="?" horiz-adv-x="802" d="M20 1313q59 53 153.5 89t207.5 36q176 0 268 -91.5t92 -244.5q0 -119 -93 -233.5t-261 -188.5l-20 -399l-68 43l-14 419q162 51 255 145.5t93 211.5q0 121 -68.5 187.5t-187.5 66.5q-102 0 -175 -30t-165 -95zM238 78q0 33 21.5 55.5t55.5 22.5q33 0 56.5 -22.5 t23.5 -55.5t-23.5 -55.5t-56.5 -22.5q-35 0 -56 22.5t-21 55.5z" />
<glyph unicode="@" horiz-adv-x="1556" d="M82 436q0 215 91 393.5t265 283t416 104.5q182 0 322.5 -77t219.5 -212t79 -305q0 -242 -88.5 -370t-243.5 -128q-106 0 -164 78q-39 -29 -92 -48.5t-101 -19.5q-143 0 -232 83t-89 214q0 113 59.5 203t158.5 141t218 51h146l32 -41l-49 -411q-2 -14 -2 -39 q0 -127 119 -127q100 0 164.5 102.5t64.5 296.5q0 156 -63.5 274.5t-183 184.5t-281.5 66q-190 0 -341 -87.5t-236 -245t-85 -362.5q0 -166 73 -290.5t198 -192.5t278 -68q90 0 181.5 18.5t152.5 53.5l27 -78q-150 -78 -383 -78q-170 0 -314.5 78t-230.5 221.5t-86 333.5z M569 432q0 -102 59.5 -161.5t157.5 -59.5q43 0 88.5 13.5t71.5 31.5q-14 37 -14 80q0 20 4 53l47 363h-92q-86 0 -160 -39t-118 -112t-44 -169z" />
<glyph unicode="A" d="M20 0l506 1393h95l530 -1383l-102 -22l-166 448h-604l-158 -436h-101zM307 516h547l-279 741z" />
<glyph unicode="B" horiz-adv-x="1157" d="M205 0v1393h291q238 0 369.5 -83t131.5 -280q0 -98 -57 -171t-149 -118q135 -41 209.5 -129t74.5 -227q0 -205 -143.5 -295t-380.5 -90h-346zM307 80h268q176 0 285 73.5t109 227.5q0 152 -98.5 226.5t-272.5 74.5h-291v-602zM307 762h187q176 2 286.5 65.5t110.5 200.5 q0 152 -96.5 218.5t-274.5 66.5h-213v-551z" />
<glyph unicode="C" horiz-adv-x="1132" d="M102 688q0 205 76 372t220 264t339 97q76 0 179.5 -20.5t154.5 -54.5l-41 -74q-78 33 -137 47t-160 14q-147 -2 -265 -80.5t-185.5 -224t-67.5 -338.5q0 -170 59.5 -314.5t173 -230.5t267.5 -86q100 0 170.5 16.5t136.5 45.5l49 -74q-57 -31 -158.5 -53.5t-187.5 -22.5 q-205 0 -345 97.5t-209 260.5t-69 359z" />
<glyph unicode="D" horiz-adv-x="1355" d="M205 0v1393h459q303 0 446 -190.5t143 -497.5q0 -199 -65.5 -359t-199.5 -253t-331 -93h-452zM305 80h354q143 0 255 81t173.5 222t61.5 319q0 170 -52.5 308.5t-157.5 220.5t-259 82h-375v-1233z" />
<glyph unicode="E" horiz-adv-x="1013" d="M205 0v1393h764l10 -80h-674v-559h492l10 -80h-502v-594h662l12 -80h-774z" />
<glyph unicode="F" horiz-adv-x="948" d="M205 0v1393h688l14 -80h-602v-568h469l12 -79h-481v-666h-100z" />
<glyph unicode="G" horiz-adv-x="1257" d="M102 688q0 211 89.5 378t248 261t355.5 94q76 0 182 -20.5t158 -54.5l-39 -68q-76 31 -137.5 45t-159.5 14q-166 0 -299 -84t-209 -231.5t-76 -333.5q0 -180 72.5 -323.5t201.5 -224.5t291 -81q121 0 250 47v515h-313l12 79h401v-637q-57 -39 -158.5 -65.5t-189.5 -26.5 q-207 0 -361.5 93.5t-236.5 256t-82 367.5z" />
<glyph unicode="H" horiz-adv-x="1341" d="M205 0v1393l100 10v-658h731v648h101v-1393h-101v666h-731v-666h-100z" />
<glyph unicode="I" horiz-adv-x="509" d="M205 0v1393h100v-1393h-100z" />
<glyph unicode="J" horiz-adv-x="485" d="M20 -143q76 29 112 52t52.5 66t16.5 125v1293h100v-1307q0 -88 -17.5 -140t-66.5 -89t-147 -66z" />
<glyph unicode="K" horiz-adv-x="1187" d="M205 0v1393h100v-727l688 757l70 -65l-512 -545l616 -813h-127l-557 741l-178 -190v-551h-100z" />
<glyph unicode="L" horiz-adv-x="1005" d="M205 0v1393h100v-1313h670l10 -80h-780z" />
<glyph unicode="M" horiz-adv-x="1480" d="M205 0v1393h45l489 -742l482 742h55v-1393h-100v1159l-412 -649l-41 -8l-418 647v-1149h-100z" />
<glyph unicode="N" horiz-adv-x="1347" d="M205 0v1393h57l711 -1045l69 -121v1166h101v-1393h-56l-753 1116l-29 60v-1176h-100z" />
<glyph unicode="O" horiz-adv-x="1447" d="M102 690q0 211 81 378t224.5 262t323.5 95q176 0 316.5 -92t219.5 -256t79 -370q0 -211 -81 -378t-224.5 -262.5t-321.5 -95.5q-176 0 -317.5 92.5t-220.5 256t-79 370.5zM215 692q0 -182 64.5 -327.5t178 -227.5t257.5 -82q150 0 267.5 84t184 231.5t66.5 334.5 q0 182 -64.5 326.5t-178.5 226t-257 81.5q-150 0 -267.5 -84t-184 -231t-66.5 -332z" />
<glyph unicode="P" horiz-adv-x="1122" d="M205 0v1393h334q231 0 366 -101.5t135 -318.5q0 -215 -146 -323.5t-378 -108.5h-211v-541h-100zM305 621h236q172 0 284.5 91t112.5 259q0 174 -99.5 257t-275.5 83h-258v-690z" />
<glyph unicode="Q" horiz-adv-x="1447" d="M102 690q0 211 81 378t224.5 262t323.5 95q176 0 316.5 -92t219.5 -256t79 -370q0 -160 -48.5 -298.5t-136.5 -238.5l170 -168l-65 -51l-168 158q-78 -68 -174.5 -103t-204.5 -35q-176 0 -317.5 92.5t-220.5 256t-79 370.5zM215 692q0 -182 64.5 -327.5t178 -227.5 t257.5 -82q180 0 311 119l-197 186l70 68l191 -186q68 88 105.5 206.5t37.5 256.5q0 182 -64.5 326.5t-178 226t-257.5 81.5q-150 0 -267.5 -84t-184 -231t-66.5 -332z" />
<glyph unicode="R" d="M205 0v1393h334q233 0 367 -94.5t134 -303.5q0 -135 -67.5 -226t-184.5 -136l363 -633h-113l-336 606q-84 -20 -186 -20h-211v-586h-100zM305 666h215q172 0 295 81.5t123 243.5q0 168 -109.5 244t-285.5 76h-238v-645z" />
<glyph unicode="S" horiz-adv-x="1032" d="M102 1096q0 94 51.5 168.5t146.5 117.5t224 43q96 0 185.5 -22.5t158.5 -56.5l-45 -74q-74 33 -137 51t-158 18q-143 0 -231 -73.5t-88 -182.5q0 -113 90 -195.5t281 -162.5q193 -80 281.5 -175t88.5 -230q0 -158 -122 -253.5t-343 -95.5q-90 0 -214 28t-158 58l30 80 q66 -33 156 -56.5t184 -23.5q113 0 196 37t125 98.5t42 133.5q0 109 -89 188.5t-282 159.5q-188 78 -280.5 177t-92.5 243z" />
<glyph unicode="T" horiz-adv-x="1093" d="M20 1313v80h1043l10 -80h-477v-1313h-100v1313h-476z" />
<glyph unicode="U" horiz-adv-x="1347" d="M184 489v904h101v-910q0 -119 48 -215t137 -152.5t204 -56.5q119 0 207 55.5t135 153t47 215.5v910h100v-904q0 -150 -57 -266.5t-167 -182t-265 -65.5q-154 0 -264.5 65.5t-168 182.5t-57.5 266z" />
<glyph unicode="V" d="M20 1380l103 23l473 -1270l455 1258h100l-506 -1393h-94z" />
<glyph unicode="W" horiz-adv-x="1662" d="M20 1380l103 23l350 -1241l311 1229h101l346 -1229l311 1229h100l-362 -1393h-94l-352 1216l-312 -1216h-94z" />
<glyph unicode="X" horiz-adv-x="1071" d="M20 0l465 717l-407 651l98 47l379 -639l385 617h111l-441 -703l441 -690h-121l-395 637l-396 -637h-119z" />
<glyph unicode="Y" horiz-adv-x="1085" d="M20 1368l101 43l409 -754l418 736h117l-483 -832v-561h-101v551z" />
<glyph unicode="Z" horiz-adv-x="1103" d="M61 102l887 1211h-831l-21 80h936l10 -101l-880 -1212h860l10 -80h-958z" />
<glyph unicode="[" horiz-adv-x="542" d="M205 -180v1605h317l-16 -79h-201v-1446h201l16 -80h-317z" />
<glyph unicode="\" horiz-adv-x="768" d="M20 1446l97 8l631 -1454l-97 -8z" />
<glyph unicode="]" horiz-adv-x="542" d="M20 -180l17 80h201v1446h-201l-17 79h318v-1605h-318z" />
<glyph unicode="^" horiz-adv-x="854" d="M20 293l353 506h88l352 -506h-98l-297 420l-299 -420h-99z" />
<glyph unicode="_" horiz-adv-x="878" d="M61 80h740l16 -80h-739z" />
<glyph unicode="`" horiz-adv-x="280" d="M20 1520h125l115 -291l-65 -23z" />
<glyph unicode="a" horiz-adv-x="972" d="M106 279q0 139 98.5 217.5t256.5 78.5h276v123q0 109 -60 173.5t-177 64.5q-90 0 -149.5 -16.5t-135.5 -53.5l-39 68q53 37 151.5 61.5t166.5 24.5q166 0 255 -87t89 -237v-696h-78l-17 106q-53 -59 -133 -96t-170 -37q-162 0 -248 85t-86 221zM211 279q0 -94 64.5 -158 t173.5 -64q92 0 164.5 45t123.5 121v277h-268q-129 0 -193.5 -61.5t-64.5 -159.5z" />
<glyph unicode="b" horiz-adv-x="1048" d="M164 0v1425l100 21v-533q119 106 275 107q213 0 320.5 -143t107.5 -385q0 -231 -115 -375t-328 -144q-70 0 -143.5 31t-130.5 76l-29 -80h-57zM264 170q125 -113 264 -113q106 0 181 58.5t114 156.5t39 217q0 195 -82 321t-241 126q-90 0 -151.5 -34t-123.5 -99v-633z " />
<glyph unicode="c" horiz-adv-x="919" d="M82 502q0 150 55.5 267.5t159.5 184t248 66.5q63 0 153 -24.5t148 -61.5l-41 -68q-72 35 -127 52.5t-137 17.5q-106 0 -187.5 -58.5t-124.5 -157.5t-43 -216q0 -125 40 -226.5t117.5 -161t186.5 -59.5q63 0 114.5 10.5t95.5 33t55 26.5l41 -70q-59 -37 -148.5 -60.5 t-157.5 -23.5q-215 0 -331.5 145.5t-116.5 383.5z" />
<glyph unicode="d" horiz-adv-x="1048" d="M82 502q0 231 114.5 374.5t327.5 143.5q66 0 134.5 -26.5t125.5 -67.5v499l101 19v-1444h-56l-36 88q-125 -115 -283 -115q-213 0 -320.5 143.5t-107.5 385.5zM186 504q0 -195 82 -321t242 -126q90 0 151.5 33.5t122.5 99.5v633q-125 113 -264 113q-106 0 -181 -58.5 t-114 -156.5t-39 -217z" />
<glyph unicode="e" horiz-adv-x="983" d="M82 502q0 233 111.5 375.5t322.5 142.5q113 0 201 -67.5t136 -187.5t48 -269h-715q2 -193 89 -316t262 -123q98 0 163.5 18.5t128.5 51.5l41 -76q-57 -35 -152 -56.5t-165 -21.5q-236 0 -353.5 143.5t-117.5 385.5zM190 571h605q-16 162 -86 263.5t-207 101.5 q-139 0 -218 -103.5t-94 -261.5z" />
<glyph unicode="f" horiz-adv-x="540" d="M41 887v76h149v190q0 133 54.5 209t161.5 76q66 0 135 -27l-25 -76q-12 6 -38.5 12.5t-45.5 6.5q-141 0 -141 -168v-223h180l43 -76h-223v-1358h-101v1358h-149z" />
<glyph unicode="g" horiz-adv-x="1040" d="M82 502q0 231 114.5 374.5t327.5 143.5q72 0 148 -33t133 -78l24 84h56v-1120q0 -154 -102.5 -249t-290.5 -95q-70 0 -177.5 24.5t-160.5 59.5l39 72q82 -37 145 -54.5t149 -17.5q131 0 214 61.5t83 178.5v227q-119 -106 -274 -107q-213 0 -320.5 143.5t-107.5 385.5z M186 504q0 -195 82 -321t242 -126q90 0 151.5 33.5t122.5 99.5v633q-125 113 -264 113q-106 0 -181 -58.5t-114 -156.5t-39 -217z" />
<glyph unicode="h" horiz-adv-x="1044" d="M164 0v1425l100 21v-606q66 76 163 128t187 52q152 0 223.5 -89t71.5 -241v-690h-100v690q0 115 -41 180.5t-145 65.5q-162 0 -359 -201v-735h-100z" />
<glyph unicode="i" horiz-adv-x="387" d="M115 1307q0 33 21.5 55t56.5 22q33 0 56 -22t23 -55t-22.5 -55.5t-56.5 -22.5q-35 0 -56.5 22.5t-21.5 55.5zM143 0v993h101v-993h-101z" />
<glyph unicode="j" horiz-adv-x="421" d="M129 1307q0 33 21.5 55t56.5 22q33 0 56.5 -22.5t23.5 -54.5q0 -33 -22.5 -55.5t-57.5 -22.5t-56.5 22.5t-21.5 55.5zM158 -471v1464h100v-1464h-100z" />
<glyph unicode="k" horiz-adv-x="919" d="M164 0v1425l100 21v-905l461 479l76 -64l-318 -315l437 -641h-121l-383 573l-152 -151v-422h-100z" />
<glyph unicode="l" horiz-adv-x="428" d="M164 0v1425l100 21v-1446h-100z" />
<glyph unicode="m" horiz-adv-x="1589" d="M143 0v993h78l21 -155q63 74 163.5 128t178.5 54q201 0 256 -180q63 74 162.5 127t177.5 53q143 0 208.5 -88t65.5 -242v-690h-100v690q0 119 -35 182.5t-131 63.5q-143 0 -332 -184q2 -20 2 -62v-690h-100v690q0 119 -35 182.5t-131 63.5q-78 0 -167 -54.5t-181 -146.5 v-735h-101z" />
<glyph unicode="n" horiz-adv-x="1024" d="M143 0v993h78l21 -155q66 76 164 129t188 53q152 0 223.5 -89t71.5 -241v-690h-101v690q0 115 -41 180.5t-145 65.5q-162 0 -358 -201v-735h-101z" />
<glyph unicode="o" horiz-adv-x="1071" d="M82 502q0 147 54 265t158.5 185.5t248.5 67.5q215 -2 330.5 -146.5t115.5 -381.5q0 -147 -54 -265t-159 -186t-246 -68q-215 2 -331.5 146.5t-116.5 382.5zM186 504q0 -125 40 -226.5t118 -161t186 -59.5q106 0 187.5 58.5t124.5 157.5t43 216q0 125 -40 226.5t-118 161 t-186 59.5q-106 0 -187.5 -58.5t-124.5 -157.5t-43 -216z" />
<glyph unicode="p" horiz-adv-x="1040" d="M156 -471v1464h57l29 -94q127 121 288 121q213 0 320.5 -143t107.5 -385q0 -231 -114.5 -375t-327.5 -144q-66 0 -134.5 27t-125.5 68v-539h-100zM256 170q125 -113 264 -113q106 0 181 58.5t114 156.5t39 217q0 195 -82 321t-242 126q-90 0 -151.5 -34t-122.5 -99v-633z " />
<glyph unicode="q" horiz-adv-x="1040" d="M82 502q0 231 114.5 374.5t327.5 143.5q72 0 146.5 -32t132.5 -77l26 82h56v-1464h-101v551q-121 -106 -274 -107q-213 0 -320.5 143.5t-107.5 385.5zM186 504q0 -195 82 -321t242 -126q90 0 151.5 33.5t122.5 99.5v633q-125 113 -264 113q-106 0 -181 -58.5t-114 -156.5 t-39 -217z" />
<glyph unicode="r" horiz-adv-x="618" d="M143 0v993h58l37 -157q70 57 163 107t162 50l35 -78q-88 0 -189.5 -57t-164.5 -127v-731h-101z" />
<glyph unicode="s" horiz-adv-x="831" d="M86 51l37 84q74 -37 136.5 -57.5t131.5 -20.5q123 0 192.5 50.5t69.5 136.5q0 123 -262 225q-289 113 -289 276q0 121 90.5 198t251.5 77q66 0 149 -23.5t132 -58.5l-41 -72q-72 35 -123 52.5t-131 17.5q-102 0 -166.5 -54.5t-64.5 -127.5q0 -63 65.5 -112.5t184.5 -96.5 q139 -55 220 -126t81 -167q-1 -279 -363 -279q-70 0 -159 21.5t-142 56.5z" />
<glyph unicode="t" horiz-adv-x="598" d="M41 887v76h147v268l101 45v-313h180l43 -76h-223v-635q0 -82 34.5 -138.5t104.5 -56.5q41 0 84 19l25 -78q-6 0 -56 -14q-41 -10 -80 -11q-98 0 -155.5 69t-57.5 196v649h-147z" />
<glyph unicode="u" horiz-adv-x="1024" d="M135 303v690h101v-690q0 -115 41 -180.5t145 -65.5q162 0 358 201v735h101v-993h-78l-21 156q-66 -76 -164 -129.5t-188 -53.5q-152 0 -223.5 89.5t-71.5 240.5z" />
<glyph unicode="v" horiz-adv-x="880" d="M20 971l95 37l327 -893l316 878h102l-368 -993h-97z" />
<glyph unicode="w" horiz-adv-x="1314" d="M20 969l95 37l243 -875l252 862h86l258 -862l238 862h102l-295 -993h-96l-258 838l-235 -838h-97z" />
<glyph unicode="x" horiz-adv-x="829" d="M20 0l330 500l-289 471l89 41l278 -465l270 446h111l-328 -518l301 -475h-112l-269 424l-266 -424h-115z" />
<glyph unicode="y" horiz-adv-x="880" d="M20 971l95 37l327 -893l316 878h102l-368 -993v-471h-101v481z" />
<glyph unicode="z" horiz-adv-x="884" d="M57 63l660 855h-567l-33 75h704l6 -65l-665 -852h633l20 -76h-741z" />
<glyph unicode="{" horiz-adv-x="542" d="M61 590v78h68q63 0 111.5 49t48.5 123q0 66 -37 147q-37 84 -37 148q0 100 64.5 157.5t189.5 57.5h53l-18 -80h-39q-70 0 -109 -38t-39 -85q0 -59 39 -146q39 -86 39 -143q0 -84 -38 -143.5t-93 -85.5q55 -27 93 -86.5t38 -143.5q0 -57 -39 -143t-39 -145q0 -47 39 -85 t109 -38h39l18 -80h-53q-125 0 -189.5 57.5t-64.5 157.5q0 66 37 147q37 84 37 148q0 74 -48 123t-112 49h-68z" />
<glyph unicode="|" horiz-adv-x="509" d="M205 0v1454l100 -8v-1454z" />
<glyph unicode="}" horiz-adv-x="542" d="M20 -92l19 80h39q70 0 108.5 37.5t38.5 85.5q0 59 -39 145t-39 143q0 84 38 143.5t94 86.5q-55 27 -93.5 86t-38.5 143q0 57 39 143t39 146q0 47 -39 85t-108 38h-39l-19 80h54q125 0 189.5 -57.5t64.5 -157.5q0 -63 -37 -148q-37 -82 -37 -147q0 -74 48 -123t112 -49h67 v-78h-67q-63 0 -111.5 -49t-48.5 -123q0 -63 37 -148q37 -82 37 -147q0 -100 -64.5 -157.5t-189.5 -57.5h-54z" />
<glyph unicode="~" horiz-adv-x="765" d="M61 440q0 74 49.5 119t129.5 45q86 0 159 -49q74 -49 127 -49q39 0 68 24.5t29 61.5h82q0 -72 -48.5 -118t-128.5 -46q-70 0 -143 49t-145 49q-39 0 -68 -24.5t-29 -61.5h-82z" />
<glyph unicode="&#xa1;" horiz-adv-x="282" d="M61 0l19 1102l92 -43v-1059h-111zM63 1360q0 33 24 55.5t56 22.5q35 0 56.5 -22.5t21.5 -55.5t-21.5 -55.5t-56.5 -22.5q-33 0 -56.5 22.5t-23.5 55.5z" />
<glyph unicode="&#xa2;" horiz-adv-x="919" d="M82 502q0 213 108.5 354t301.5 162v201l90 20v-221q63 -6 138 -29.5t126 -54.5l-41 -68q-72 35 -127 52.5t-137 17.5q-106 0 -187.5 -58.5t-124.5 -157.5t-43 -216q0 -125 40 -226.5t118 -161t186 -59.5q63 0 108.5 9.5t83.5 26t73 34.5l41 -70q-49 -31 -120 -52.5 t-134 -27.5v-204h-90v202q-197 14 -303.5 156.5t-106.5 370.5z" />
<glyph unicode="&#xa3;" horiz-adv-x="872" d="M123 760h149v356q0 133 54.5 209t160.5 76q66 0 136 -27l-25 -76q-12 6 -39 12.5t-45 6.5q-141 0 -141 -168v-389h286l46 -76h-332v-391q0 -78 -14.5 -128t-55.5 -85h537l12 -80h-709l-4 80q133 2 133 170v434h-145z" />
<glyph unicode="&#xa4;" horiz-adv-x="1353" d="M61 -45l215 213q-98 139 -98 336q0 182 101 317l-218 213l60 66l217 -211q68 63 157 97t191 34q199 0 332 -129l215 209l59 -66l-215 -213q47 -70 73 -154.5t26 -177.5q0 -88 -27 -169.5t-78 -147.5l221 -217l-59 -66l-223 215q-63 -61 -152.5 -96t-191.5 -35 q-199 0 -330 125l-215 -209zM283 504q0 -127 49 -228.5t137 -160t197 -58.5q117 0 209 58.5t144 157t52 216.5q0 121 -46 223.5t-133 163t-206 60.5q-115 0 -207 -59.5t-144 -159t-52 -213.5z" />
<glyph unicode="&#xa5;" horiz-adv-x="1085" d="M20 1368l101 43l409 -754l418 736h117l-455 -783h338l10 -80h-376v-266h366l10 -80h-376v-184h-101v184h-344l-10 80h354v266h-344l-10 80h322z" />
<glyph unicode="&#xa6;" horiz-adv-x="509" d="M205 0v598l100 -8v-598zM205 840v614l100 -8v-615z" />
<glyph unicode="&#xa7;" horiz-adv-x="1167" d="M102 879q0 84 40 152.5t116 111.5q-20 55 -20 125q0 94 51 168.5t146 117.5t224 43q96 0 185.5 -22.5t159.5 -56.5l-46 -74q-74 33 -137 51t-157 18q-143 0 -231.5 -73.5t-88.5 -182.5q0 -113 90 -195.5t281 -162.5q193 -80 281.5 -175t88.5 -230q0 -88 -38.5 -159 t-114.5 -116q18 -53 18 -115q0 -158 -121.5 -253t-343.5 -95q-90 0 -214 28t-158 58l30 80q66 -33 156 -56.5t184 -23.5q113 0 196 37t125 98.5t42 133.5q0 109 -89 188.5t-282 159.5q-188 78 -280.5 177t-92.5 243zM209 868q0 -113 90 -195.5t281 -162.5q221 -92 303 -201 q49 35 73.5 84.5t24.5 106.5q0 109 -89 188.5t-282 159.5q-223 94 -307 209q-45 -35 -69.5 -84t-24.5 -105z" />
<glyph unicode="&#xa8;" horiz-adv-x="518" d="M20 1341q0 33 20.5 53.5t55.5 20.5q31 0 53.5 -21.5t22.5 -52.5q0 -33 -22.5 -54t-53.5 -21q-35 0 -55.5 21.5t-20.5 53.5zM346 1341q0 33 20.5 53.5t55.5 20.5q31 0 53.5 -21.5t22.5 -52.5q0 -33 -22.5 -54t-53.5 -21q-35 0 -55.5 21.5t-20.5 53.5z" />
<glyph unicode="&#xa9;" horiz-adv-x="1611" d="M82 688q0 203 89 367t254 257t380 93q213 0 378 -93t256 -257t91 -367q0 -201 -91 -363.5t-256 -256t-378 -93.5q-221 0 -385 93.5t-251 255t-87 364.5zM178 690q0 -180 78 -325.5t220 -229.5t329 -84q186 0 329.5 84t221.5 230.5t78 324.5t-78 323.5t-221.5 229.5 t-329.5 84t-328.5 -84t-220.5 -228.5t-78 -324.5zM410 698q0 143 56 246t152.5 155t212.5 52q63 0 140.5 -24.5t120.5 -61.5l-41 -64q-111 70 -224 70q-139 0 -228 -101.5t-89 -271.5t89 -271t228 -101q113 0 224 69l41 -63q-43 -37 -120 -61.5t-141 -24.5q-117 0 -213 52 t-152 154.5t-56 245.5z" />
<glyph unicode="&#xaa;" horiz-adv-x="679" d="M82 954q0 92 69.5 146.5t176.5 54.5h176v47q0 72 -42 114t-122 42q-43 0 -78 -7.5t-66.5 -20.5t-43.5 -17l-25 65q37 25 101.5 42.5t109.5 17.5q123 0 191.5 -73t68.5 -177v-426h-66l-22 74q-35 -41 -87 -67t-106 -26q-109 0 -172 60.5t-63 150.5zM174 954q0 -53 40 -97 t103 -44q55 0 104.5 27.5t82.5 74.5v177h-158q-84 0 -128 -39t-44 -99z" />
<glyph unicode="&#xab;" horiz-adv-x="743" d="M61 469v66l287 296l43 -63l-250 -266l250 -266l-43 -64zM373 469v66l286 296l43 -63l-251 -266l251 -266l-43 -64z" />
<glyph unicode="&#xac;" horiz-adv-x="1034" d="M20 831h936l17 -102v-500l-101 11v512h-835z" />
<glyph unicode="&#xad;" horiz-adv-x="636" d="M61 598h498l16 -80h-497z" />
<glyph unicode="&#xae;" horiz-adv-x="1464" d="M82 997q0 180 82 325.5t229 228.5t340 83q188 0 336 -84t230.5 -229t82.5 -324q0 -178 -82.5 -322.5t-230 -227t-336.5 -82.5q-188 0 -336.5 82.5t-231.5 227t-83 322.5zM180 999q0 -156 68.5 -282.5t193.5 -201.5t291 -75q164 0 288 75t192.5 202t68.5 282 q0 158 -67.5 285t-192.5 199.5t-289 72.5q-166 0 -291 -72.5t-193.5 -199.5t-68.5 -285zM526 623v770h179q129 0 203.5 -53.5t74.5 -168.5q0 -74 -43 -129t-106 -81l200 -338h-96l-184 325h-29q-10 -2 -31 -2h-86v-323h-82zM608 1012h72q215 -1 215 157q0 92 -52 124 t-153 32h-82v-313z" />
<glyph unicode="&#xb0;" horiz-adv-x="497" d="M20 1227q0 88 62.5 149.5t155.5 61.5q92 0 155.5 -61.5t63.5 -149.5q0 -92 -62.5 -149.5t-156.5 -57.5t-156 57.5t-62 149.5zM102 1229q0 -55 40 -100.5t104 -45.5q63 0 97 44t34 102q0 53 -40 98t-99 45t-97.5 -44t-38.5 -99z" />
<glyph unicode="&#xb1;" horiz-adv-x="1007" d="M61 76h869l16 -76h-868zM61 707h383v387l101 -7v-380h370l17 -76h-387v-410l-101 10v400h-366z" />
<glyph unicode="&#xb2;" horiz-adv-x="700" d="M51 688v76l320 291q100 92 135 157q33 63 33 113q0 68 -48.5 125t-142.5 57q-90 0 -254 -69l-35 63q57 31 140.5 54.5t152.5 23.5q90 0 153.5 -35t94.5 -91t31 -116q0 -86 -48 -164.5t-159 -179.5l-268 -237h491l12 -68h-608z" />
<glyph unicode="&#xb3;" horiz-adv-x="724" d="M0 651l49 66q59 -35 114.5 -51.5t137.5 -16.5q96 0 168 55.5t72 145.5q0 106 -62.5 159.5t-216.5 53.5h-51l-14 67h75q123 0 185.5 54.5t62.5 146.5q0 72 -57 123t-148 51q-131 0 -252 -78l-45 62q70 43 140.5 66.5t158.5 23.5q145 0 221 -69.5t76 -176.5 q0 -82 -46 -144.5t-117 -86.5q86 -20 134 -86t48 -164q0 -123 -91 -203t-249 -80q-80 0 -156 23.5t-137 58.5z" />
<glyph unicode="&#xb4;" horiz-adv-x="280" d="M20 1229l115 291h125l-174 -314z" />
<glyph unicode="&#xb5;" horiz-adv-x="1044" d="M156 -449v1442h100v-690q0 -115 41 -180.5t145 -65.5q162 0 359 201v735h100v-993h-78l-20 156q-66 -76 -164 -129.5t-188 -53.5q-119 0 -195 60v-459z" />
<glyph unicode="&#xb6;" horiz-adv-x="1654" d="M82 973q0 207 136 313.5t366 106.5h989v-80h-230v-1313h-100v1313h-459v-1313h-100v541h-78q-147 0 -266 49t-188.5 147.5t-69.5 235.5z" />
<glyph unicode="&#xb8;" horiz-adv-x="421" d="M20 -414l31 64q70 -29 121 -29q61 0 102 28.5t41 67.5q0 47 -55 86t-147 39l69 185h84l-51 -131q88 -16 137 -66.5t49 -108.5q0 -78 -61 -126t-162 -48q-39 0 -86 11.5t-72 27.5z" />
<glyph unicode="&#xb9;" horiz-adv-x="491" d="M20 1434l259 133h49v-879h-88v778l-172 -84z" />
<glyph unicode="&#xba;" horiz-adv-x="704" d="M41 1090q0 102 43 182t113.5 123t152.5 43q84 0 156 -42t115 -121t43 -185q0 -102 -43 -181.5t-114 -122.5t-155 -43t-154.5 41t-113.5 120.5t-43 185.5zM133 1090q0 -123 64.5 -198t154.5 -75q55 0 106.5 32t82 93.5t30.5 147.5q0 127 -62.5 201.5t-158.5 74.5 q-55 0 -105 -33t-81 -95t-31 -148z" />
<glyph unicode="&#xbb;" horiz-adv-x="743" d="M41 236l252 266l-252 266l43 63l287 -296v-66l-287 -297zM352 236l250 266l-250 266l43 63l287 -296v-66l-287 -297z" />
<glyph unicode="&#xbc;" horiz-adv-x="1454" d="M20 1434l259 133h49v-879h-88v778l-172 -84zM51 -274l1036 1708h93l-1026 -1708h-103zM664 -63l518 720h57v-720h174l-8 -70h-166v-201h-90v201h-477zM760 -63h389v550z" />
<glyph unicode="&#xbd;" horiz-adv-x="1552" d="M20 1434l259 133h49v-879h-88v778l-172 -84zM72 -274l1036 1708h92l-1026 -1708h-102zM903 -150l320 291q100 92 135 158q33 63 33 113q0 68 -48.5 125t-142.5 57q-90 0 -254 -70l-35 64q57 31 140.5 54.5t152.5 23.5q90 0 153.5 -35t94.5 -91.5t31 -115.5 q0 -86 -48.5 -165t-158.5 -179l-268 -238h491l12 -67h-608v75z" />
<glyph unicode="&#xbe;" horiz-adv-x="1583" d="M0 651l49 66q59 -35 114.5 -51.5t137.5 -16.5q96 0 168 55.5t72 145.5q0 106 -62.5 159.5t-216.5 53.5h-51l-14 67h75q123 0 185.5 54.5t62.5 146.5q0 72 -57 123t-148 51q-131 0 -252 -78l-45 62q70 43 140.5 66.5t158.5 23.5q145 0 221 -69.5t76 -176.5 q0 -82 -46 -144.5t-117 -86.5q86 -20 134 -86t48 -164q0 -123 -91 -203t-249 -80q-80 0 -156 23.5t-137 58.5zM236 -274l1036 1708h92l-1026 -1708h-102zM793 -63l518 720h57v-720h174l-8 -70h-166v-201h-90v201h-477zM889 -63h389v550z" />
<glyph unicode="&#xbf;" horiz-adv-x="802" d="M61 172q0 119 93.5 233.5t261.5 188.5l20 399l68 -43l14 -420q-162 -51 -255 -145t-93 -211q0 -121 68.5 -187.5t187.5 -66.5q102 0 175 30t165 95l16 -84q-59 -53 -153 -89t-207 -36q-176 0 -268.5 91t-92.5 245zM408 1196q0 33 23.5 55.5t55.5 22.5q35 0 56.5 -22.5 t21.5 -55.5t-21.5 -55.5t-56.5 -22.5q-33 0 -56 22.5t-23 55.5z" />
<glyph unicode="&#xc0;" d="M20 0l506 1393h95l530 -1383l-102 -22l-166 448h-604l-158 -436h-101zM307 516h547l-279 741zM412 1827h125l114 -291l-65 -23z" />
<glyph unicode="&#xc1;" d="M20 0l506 1393h95l530 -1383l-102 -22l-166 448h-604l-158 -436h-101zM307 516h547l-279 741zM489 1536l115 291h125l-174 -314z" />
<glyph unicode="&#xc2;" d="M20 0l506 1393h95l530 -1383l-102 -22l-166 448h-604l-158 -436h-101zM307 516h547l-279 741zM330 1536l217 293h82l215 -285l-84 -28l-170 241l-176 -241z" />
<glyph unicode="&#xc3;" d="M20 0l506 1393h95l530 -1383l-102 -22l-166 448h-604l-158 -436h-101zM279 1561q0 92 48 139t122 47q88 0 133 -57q47 -60 98 -60q41 0 64.5 30t27.5 79h78q0 -92 -48 -139.5t-122 -47.5q-70 0 -123 60q-55 57 -106 57q-82 0 -93 -108h-79zM307 516h547l-279 741z" />
<glyph unicode="&#xc4;" d="M20 0l506 1393h95l530 -1383l-102 -22l-166 448h-604l-158 -436h-101zM307 516h547l-279 741zM332 1649q0 33 20.5 53t55.5 20q31 0 53 -21t22 -52q0 -33 -22.5 -54.5t-52.5 -21.5q-35 0 -55.5 21.5t-20.5 54.5zM657 1649q0 33 20.5 53t55.5 20q31 0 53.5 -21t22.5 -52 q0 -33 -22.5 -54.5t-53.5 -21.5q-35 0 -55.5 21.5t-20.5 54.5z" />
<glyph unicode="&#xc5;" d="M20 0l506 1393h95l530 -1383l-102 -22l-166 448h-604l-158 -436h-101zM307 516h547l-279 741zM389 1690q0 74 54.5 123t127.5 49q74 0 127.5 -49.5t53.5 -122.5q0 -72 -52.5 -119t-128.5 -47t-129 47t-53 119zM469 1690q0 -45 28.5 -75t73.5 -30t73 30t28 75 q0 47 -28 77.5t-73 30.5t-73.5 -30.5t-28.5 -77.5z" />
<glyph unicode="&#xc6;" horiz-adv-x="1697" d="M20 10l852 1383h775l10 -80h-668v-559h492l10 -80h-502v-594h656l12 -80h-768v436h-500l-266 -446zM438 516h451v735z" />
<glyph unicode="&#xc7;" horiz-adv-x="1132" d="M102 688q0 205 76 372t220.5 264t338.5 97q76 0 179.5 -20.5t154.5 -54.5l-41 -74q-78 33 -137 47t-160 14q-147 -2 -265 -80.5t-185.5 -224t-67.5 -338.5q0 -170 59.5 -314.5t173 -230.5t267.5 -86q100 0 170.5 16.5t136.5 45.5l49 -74q-53 -29 -142 -50.5t-171 -25.5 l-31 -75q88 -16 137 -66.5t49 -108.5q0 -78 -61 -126t-162 -48q-39 0 -86 11.5t-72 27.5l31 64q70 -29 121 -29q61 0 102 28.5t41 67.5q0 47 -55 86t-147 39l49 131q-188 12 -316.5 111.5t-192 257.5t-63.5 346z" />
<glyph unicode="&#xc8;" horiz-adv-x="1013" d="M205 0v1393h764l10 -80h-674v-559h492l10 -80h-502v-594h662l12 -80h-774zM399 1827h125l115 -291l-66 -23z" />
<glyph unicode="&#xc9;" horiz-adv-x="1013" d="M205 0v1393h764l10 -80h-674v-559h492l10 -80h-502v-594h662l12 -80h-774zM477 1536l115 291h125l-174 -314z" />
<glyph unicode="&#xca;" horiz-adv-x="1013" d="M205 0v1393h764l10 -80h-674v-559h492l10 -80h-502v-594h662l12 -80h-774zM317 1536l218 293h81l215 -285l-83 -28l-170 241l-177 -241z" />
<glyph unicode="&#xcb;" horiz-adv-x="1013" d="M205 0v1393h764l10 -80h-674v-559h492l10 -80h-502v-594h662l12 -80h-774zM319 1649q0 33 20.5 53t55.5 20q31 0 53.5 -21t22.5 -52q0 -33 -22.5 -54.5t-53.5 -21.5q-35 0 -55.5 21.5t-20.5 54.5zM645 1649q0 33 20.5 53t55.5 20q31 0 53.5 -21t22.5 -52 q0 -33 -22.5 -54.5t-53.5 -21.5q-35 0 -55.5 21.5t-20.5 54.5z" />
<glyph unicode="&#xcc;" horiz-adv-x="509" d="M92 1827h125l115 -291l-66 -23zM205 0v1393h100v-1393h-100z" />
<glyph unicode="&#xcd;" horiz-adv-x="509" d="M170 1536l115 291h125l-174 -314zM205 0v1393h100v-1393h-100z" />
<glyph unicode="&#xce;" horiz-adv-x="509" d="M10 1536l217 293h82l215 -285l-84 -28l-170 241l-176 -241zM205 0v1393h100v-1393h-100z" />
<glyph unicode="&#xcf;" horiz-adv-x="509" d="M12 1649q0 33 20.5 53t55.5 20q31 0 53.5 -21t22.5 -52q0 -33 -22.5 -54.5t-53.5 -21.5q-35 0 -55.5 21.5t-20.5 54.5zM205 0v1393h100v-1393h-100zM338 1649q0 33 20.5 53t55.5 20q31 0 53 -21t22 -52q0 -33 -22.5 -54.5t-52.5 -21.5q-35 0 -55.5 21.5t-20.5 54.5z" />
<glyph unicode="&#xd0;" horiz-adv-x="1355" d="M20 723h185v670h459q303 0 446 -190.5t143 -497.5q0 -199 -65.5 -359t-199.5 -253t-331 -93h-452v643h-164zM305 80h354q143 0 255 81t173.5 222t61.5 319q0 170 -52.5 308.5t-157.5 220.5t-259 82h-375v-590h223l21 -80h-244v-563z" />
<glyph unicode="&#xd1;" horiz-adv-x="1347" d="M205 0v1393h57l711 -1045l69 -121v1166h101v-1393h-56l-753 1116l-29 60v-1176h-100zM379 1561q0 92 48 139t122 47q88 0 133 -57q47 -60 98 -60q41 0 64.5 30t27.5 79h78q0 -92 -48 -139.5t-122 -47.5q-70 0 -123 60q-55 57 -106 57q-82 0 -92 -108h-80z" />
<glyph unicode="&#xd2;" horiz-adv-x="1447" d="M102 690q0 211 81 378t224.5 262t323.5 95q176 0 316.5 -92t219.5 -256t79 -370q0 -211 -81 -378t-224.5 -262.5t-321.5 -95.5q-176 0 -317.5 92.5t-220.5 256t-79 370.5zM215 692q0 -182 64.5 -327.5t178 -227.5t257.5 -82q150 0 267.5 84t184 231.5t66.5 334.5 q0 182 -64.5 326.5t-178.5 226t-257 81.5q-150 0 -267.5 -84t-184 -231t-66.5 -332zM567 1827h125l115 -291l-66 -23z" />
<glyph unicode="&#xd3;" horiz-adv-x="1447" d="M102 690q0 211 81 378t224.5 262t323.5 95q176 0 316.5 -92t219.5 -256t79 -370q0 -211 -81 -378t-224.5 -262.5t-321.5 -95.5q-176 0 -317.5 92.5t-220.5 256t-79 370.5zM215 692q0 -182 64.5 -327.5t178 -227.5t257.5 -82q150 0 267.5 84t184 231.5t66.5 334.5 q0 182 -64.5 326.5t-178.5 226t-257 81.5q-150 0 -267.5 -84t-184 -231t-66.5 -332zM645 1536l115 291h125l-174 -314z" />
<glyph unicode="&#xd4;" horiz-adv-x="1447" d="M102 690q0 211 81 378t224.5 262t323.5 95q176 0 316.5 -92t219.5 -256t79 -370q0 -211 -81 -378t-224.5 -262.5t-321.5 -95.5q-176 0 -317.5 92.5t-220.5 256t-79 370.5zM215 692q0 -182 64.5 -327.5t178 -227.5t257.5 -82q150 0 267.5 84t184 231.5t66.5 334.5 q0 182 -64.5 326.5t-178.5 226t-257 81.5q-150 0 -267.5 -84t-184 -231t-66.5 -332zM485 1536l217 293h82l215 -285l-84 -28l-170 241l-176 -241z" />
<glyph unicode="&#xd5;" horiz-adv-x="1447" d="M102 690q0 211 81 378t224.5 262t323.5 95q176 0 316.5 -92t219.5 -256t79 -370q0 -211 -81 -378t-224.5 -262.5t-321.5 -95.5q-176 0 -317.5 92.5t-220.5 256t-79 370.5zM215 692q0 -182 64.5 -327.5t178 -227.5t257.5 -82q150 0 267.5 84t184 231.5t66.5 334.5 q0 182 -64.5 326.5t-178.5 226t-257 81.5q-150 0 -267.5 -84t-184 -231t-66.5 -332zM434 1561q0 92 48 139t122 47q88 0 133 -57q48 -60 99 -60q41 0 64.5 30t27.5 79h78q0 -92 -48.5 -139.5t-121.5 -47.5q-70 0 -123 60q-55 57 -107 57q-82 0 -92 -108h-80z" />
<glyph unicode="&#xd6;" horiz-adv-x="1447" d="M102 690q0 211 81 378t224.5 262t323.5 95q176 0 316.5 -92t219.5 -256t79 -370q0 -211 -81 -378t-224.5 -262.5t-321.5 -95.5q-176 0 -317.5 92.5t-220.5 256t-79 370.5zM215 692q0 -182 64.5 -327.5t178 -227.5t257.5 -82q150 0 267.5 84t184 231.5t66.5 334.5 q0 182 -64.5 326.5t-178.5 226t-257 81.5q-150 0 -267.5 -84t-184 -231t-66.5 -332zM487 1649q0 33 20.5 53t55.5 20q31 0 53.5 -21t22.5 -52q0 -33 -22.5 -54.5t-53.5 -21.5q-35 0 -55.5 21.5t-20.5 54.5zM813 1649q0 33 20.5 53t55.5 20q31 0 53.5 -21t22.5 -52 q0 -33 -22.5 -54.5t-53.5 -21.5q-35 0 -55.5 21.5t-20.5 54.5z" />
<glyph unicode="&#xd7;" horiz-adv-x="962" d="M61 63l375 449l-340 438h101l286 -360l314 360h104l-375 -448l340 -439h-100l-293 361l-307 -361h-105z" />
<glyph unicode="&#xd8;" horiz-adv-x="1447" d="M102 690q0 211 81 378t224.5 262t323.5 95q176 0 316.5 -92t219.5 -255.5t79 -370.5q0 -211 -81 -378t-224.5 -262.5t-321.5 -95.5q-176 0 -317.5 92.5t-220.5 256t-79 370.5zM215 692q0 -174 59.5 -315t163.5 -225l488 1144q-86 43 -193 43q-150 0 -267.5 -84t-184 -231 t-66.5 -332zM524 98q86 -43 191 -43q150 0 267.5 84t184 232t66.5 334q0 174 -58.5 314t-160.5 222z" />
<glyph unicode="&#xd9;" horiz-adv-x="1347" d="M184 489v904h101v-910q0 -119 48 -215t137 -152.5t204 -56.5q119 0 207 55.5t135 153t47 215.5v910h100v-904q0 -150 -57 -266.5t-167 -182t-265 -65.5q-154 0 -264.5 65.5t-168 182.5t-57.5 266zM510 1827h125l115 -291l-66 -23z" />
<glyph unicode="&#xda;" horiz-adv-x="1347" d="M184 489v904h101v-910q0 -119 48 -215t137 -152.5t204 -56.5q119 0 207 55.5t135 153t47 215.5v910h100v-904q0 -150 -57 -266.5t-167 -182t-265 -65.5q-154 0 -264.5 65.5t-168 182.5t-57.5 266zM588 1536l114 291h125l-174 -314z" />
<glyph unicode="&#xdb;" horiz-adv-x="1347" d="M184 489v904h101v-910q0 -119 48 -215t137 -152.5t204 -56.5q119 0 207 55.5t135 153t47 215.5v910h100v-904q0 -150 -57 -266.5t-167 -182t-265 -65.5q-154 0 -264.5 65.5t-168 182.5t-57.5 266zM428 1536l217 293h82l215 -285l-84 -28l-170 241l-176 -241z" />
<glyph unicode="&#xdc;" horiz-adv-x="1347" d="M184 489v904h101v-910q0 -119 48 -215t137 -152.5t204 -56.5q119 0 207 55.5t135 153t47 215.5v910h100v-904q0 -150 -57 -266.5t-167 -182t-265 -65.5q-154 0 -264.5 65.5t-168 182.5t-57.5 266zM430 1649q0 33 20.5 53t55.5 20q31 0 53.5 -21t22.5 -52 q0 -33 -22.5 -54.5t-53.5 -21.5q-35 0 -55.5 21.5t-20.5 54.5zM756 1649q0 33 20.5 53t54.5 20q31 0 53.5 -21t22.5 -52q0 -33 -22.5 -54.5t-53.5 -21.5q-35 0 -55 21.5t-20 54.5z" />
<glyph unicode="&#xdd;" horiz-adv-x="1085" d="M20 1368l101 43l409 -754l418 736h117l-483 -832v-561h-101v551zM444 1536l115 291h125l-174 -314z" />
<glyph unicode="&#xde;" horiz-adv-x="1122" d="M205 0v1393h100v-164h234q231 0 366 -101.5t135 -318.5q0 -215 -146 -323.5t-378 -108.5h-211v-377h-100zM305 457h236q172 0 284.5 91t112.5 259q0 174 -99.5 257t-275.5 83h-258v-690z" />
<glyph unicode="&#xdf;" horiz-adv-x="1114" d="M164 -471v1440q0 199 105.5 311.5t295.5 112.5q168 0 277.5 -95.5t109.5 -267.5q0 -106 -51 -184t-145 -117q117 -33 191.5 -124t74.5 -220q0 -205 -142.5 -295t-381.5 -90h-78v80h104q176 0 283.5 73.5t107.5 227.5q0 152 -98 226.5t-272 74.5h-92v80h55q180 0 259 66.5 t79 199.5q0 131 -79 206t-196 75q-145 0 -225 -96.5t-80 -243.5v-1440h-102z" />
<glyph unicode="&#xe0;" horiz-adv-x="972" d="M106 279q0 139 98.5 217.5t256.5 78.5h276v123q0 109 -60 173.5t-177 64.5q-90 0 -149.5 -16.5t-135.5 -53.5l-39 68q53 37 151.5 61.5t166.5 24.5q166 0 255 -87t89 -237v-696h-78l-17 106q-53 -59 -133 -96t-170 -37q-162 0 -248 85t-86 221zM211 279q0 -94 64.5 -158 t173.5 -64q92 0 164.5 45t123.5 121v277h-268q-129 0 -193.5 -61.5t-64.5 -159.5zM323 1520h125l115 -291l-65 -23z" />
<glyph unicode="&#xe1;" horiz-adv-x="972" d="M106 279q0 139 98.5 217.5t256.5 78.5h276v123q0 109 -60 173.5t-177 64.5q-90 0 -149.5 -16.5t-135.5 -53.5l-39 68q53 37 151.5 61.5t166.5 24.5q166 0 255 -87t89 -237v-696h-78l-17 106q-53 -59 -133 -96t-170 -37q-162 0 -248 85t-86 221zM211 279q0 -94 64.5 -158 t173.5 -64q92 0 164.5 45t123.5 121v277h-268q-129 0 -193.5 -61.5t-64.5 -159.5zM403 1229l115 291h125l-174 -314z" />
<glyph unicode="&#xe2;" horiz-adv-x="972" d="M106 279q0 139 98.5 217.5t256.5 78.5h276v123q0 109 -60 173.5t-177 64.5q-90 0 -149.5 -16.5t-135.5 -53.5l-39 68q53 37 151.5 61.5t166.5 24.5q166 0 255 -87t89 -237v-696h-78l-17 106q-53 -59 -133 -96t-170 -37q-162 0 -248 85t-86 221zM211 279q0 -94 64.5 -158 t173.5 -64q92 0 164.5 45t123.5 121v277h-268q-129 0 -193.5 -61.5t-64.5 -159.5zM253 1227l218 293h81l216 -285l-84 -29l-170 242l-177 -242z" />
<glyph unicode="&#xe3;" horiz-adv-x="972" d="M106 279q0 139 98.5 217.5t256.5 78.5h276v123q0 109 -60 173.5t-177 64.5q-90 0 -149.5 -16.5t-135.5 -53.5l-39 68q53 37 151.5 61.5t166.5 24.5q166 0 255 -87t89 -237v-696h-78l-17 106q-53 -59 -133 -96t-170 -37q-162 0 -248 85t-86 221zM206 1253q0 92 48.5 139.5 t121.5 47.5q88 0 134 -58q47 -59 98 -59q41 0 64.5 29.5t27.5 79.5h78q0 -92 -48 -139.5t-122 -47.5q-70 0 -123 60q-55 57 -106 57q-82 0 -93 -109h-80zM211 279q0 -94 64.5 -158t173.5 -64q92 0 164.5 45t123.5 121v277h-268q-129 0 -193.5 -61.5t-64.5 -159.5z" />
<glyph unicode="&#xe4;" horiz-adv-x="972" d="M106 279q0 139 98.5 217.5t256.5 78.5h276v123q0 109 -60 173.5t-177 64.5q-90 0 -149.5 -16.5t-135.5 -53.5l-39 68q53 37 151.5 61.5t166.5 24.5q166 0 255 -87t89 -237v-696h-78l-17 106q-53 -59 -133 -96t-170 -37q-162 0 -248 85t-86 221zM211 279q0 -94 64.5 -158 t173.5 -64q92 0 164.5 45t123.5 121v277h-268q-129 0 -193.5 -61.5t-64.5 -159.5zM260 1341q0 33 20.5 53.5t55.5 20.5q31 0 53.5 -21.5t22.5 -52.5q0 -33 -22.5 -54t-53.5 -21q-35 0 -55.5 21.5t-20.5 53.5zM586 1341q0 33 20.5 53.5t55.5 20.5q31 0 53.5 -21.5t22.5 -52.5 q0 -33 -22.5 -54t-53.5 -21q-35 0 -55.5 21.5t-20.5 53.5z" />
<glyph unicode="&#xe5;" horiz-adv-x="972" d="M106 279q0 139 98.5 217.5t256.5 78.5h276v123q0 109 -60 173.5t-177 64.5q-90 0 -149.5 -16.5t-135.5 -53.5l-39 68q53 37 151.5 61.5t166.5 24.5q166 0 255 -87t89 -237v-696h-78l-17 106q-53 -59 -133 -96t-170 -37q-162 0 -248 85t-86 221zM211 279q0 -94 64.5 -158 t173.5 -64q92 0 164.5 45t123.5 121v277h-268q-129 0 -193.5 -61.5t-64.5 -159.5zM305 1382q0 74 54.5 123t128.5 49t127 -49t53 -123q0 -72 -52 -118.5t-128 -46.5t-129.5 46.5t-53.5 118.5zM385 1382q0 -45 29 -74.5t74 -29.5t72.5 29.5t27.5 74.5q0 47 -27.5 78t-72.5 31 t-74 -31t-29 -78z" />
<glyph unicode="&#xe6;" horiz-adv-x="1628" d="M106 279q0 139 98.5 217.5t256.5 78.5h268q4 37 8 60v63q0 109 -60.5 173.5t-176.5 64.5q-90 0 -149.5 -16.5t-135.5 -53.5l-39 68q53 37 151.5 61.5t166.5 24.5q123 0 202.5 -47t114.5 -133q55 86 143 133t207 47q113 0 201 -67.5t136 -187.5t48 -269h-715 q2 -193 89.5 -316t261.5 -123q98 0 164 18.5t129 51.5l41 -76q-57 -35 -152.5 -56.5t-165.5 -21.5q-135 0 -232.5 49.5t-154.5 139.5q-57 -92 -144 -140.5t-227 -48.5q-162 0 -248 85t-86 221zM211 279q0 -94 64.5 -158t173.5 -64q115 0 191.5 50.5t129.5 138.5 q-43 111 -43 254h-258q-129 0 -193.5 -61.5t-64.5 -159.5zM836 571h604q-16 162 -86 263.5t-207 101.5q-139 0 -218 -103.5t-93 -261.5z" />
<glyph unicode="&#xe7;" horiz-adv-x="919" d="M82 502q0 150 55.5 267.5t159.5 184t248 66.5q63 0 153 -24.5t148 -61.5l-41 -68q-72 35 -127 52.5t-137 17.5q-106 0 -187.5 -58.5t-124.5 -157.5t-43 -216q0 -125 40 -226.5t118 -161t186 -59.5q63 0 108.5 9.5t83.5 26t73 34.5l41 -70q-51 -33 -129 -55.5t-144 -26.5 l-31 -79q88 -16 137.5 -66.5t49.5 -108.5q0 -78 -61.5 -126t-161.5 -48q-39 0 -86.5 11.5t-71.5 27.5l31 64q70 -29 120 -29q61 0 102.5 28.5t41.5 67.5q0 47 -55.5 86t-147.5 39l51 133q-193 18 -296 161t-103 366z" />
<glyph unicode="&#xe8;" horiz-adv-x="983" d="M82 502q0 233 111.5 375.5t322.5 142.5q113 0 201 -67.5t136 -187.5t48 -269h-715q2 -193 89 -316t262 -123q98 0 163.5 18.5t128.5 51.5l41 -76q-57 -35 -152 -56.5t-165 -21.5q-236 0 -353.5 143.5t-117.5 385.5zM190 571h605q-16 162 -86 263.5t-207 101.5 q-139 0 -218 -103.5t-94 -261.5zM344 1520h125l115 -291l-65 -23z" />
<glyph unicode="&#xe9;" horiz-adv-x="983" d="M82 502q0 233 111.5 375.5t322.5 142.5q113 0 201 -67.5t136 -187.5t48 -269h-715q2 -193 89 -316t262 -123q98 0 163.5 18.5t128.5 51.5l41 -76q-57 -35 -152 -56.5t-165 -21.5q-236 0 -353.5 143.5t-117.5 385.5zM190 571h605q-16 162 -86 263.5t-207 101.5 q-139 0 -218 -103.5t-94 -261.5zM423 1229l115 291h125l-174 -314z" />
<glyph unicode="&#xea;" horiz-adv-x="983" d="M82 502q0 233 111.5 375.5t322.5 142.5q113 0 201 -67.5t136 -187.5t48 -269h-715q2 -193 89 -316t262 -123q98 0 163.5 18.5t128.5 51.5l41 -76q-57 -35 -152 -56.5t-165 -21.5q-236 0 -353.5 143.5t-117.5 385.5zM190 571h605q-16 162 -86 263.5t-207 101.5 q-139 0 -218 -103.5t-94 -261.5zM274 1227l218 293h81l216 -285l-84 -29l-170 242l-177 -242z" />
<glyph unicode="&#xeb;" horiz-adv-x="983" d="M82 502q0 233 111.5 375.5t322.5 142.5q113 0 201 -67.5t136 -187.5t48 -269h-715q2 -193 89 -316t262 -123q98 0 163.5 18.5t128.5 51.5l41 -76q-57 -35 -152 -56.5t-165 -21.5q-236 0 -353.5 143.5t-117.5 385.5zM190 571h605q-16 162 -86 263.5t-207 101.5 q-139 0 -218 -103.5t-94 -261.5zM280 1341q0 33 20.5 53.5t55.5 20.5q31 0 53.5 -21.5t22.5 -52.5q0 -33 -22.5 -54t-53.5 -21q-35 0 -55.5 21.5t-20.5 53.5zM606 1341q0 33 20.5 53.5t55.5 20.5q31 0 53.5 -21.5t22.5 -52.5q0 -33 -22.5 -54t-53.5 -21q-35 0 -55.5 21.5 t-20.5 53.5z" />
<glyph unicode="&#xec;" horiz-adv-x="387" d="M28 1520h125l115 -291l-65 -23zM143 0v993h101v-993h-101z" />
<glyph unicode="&#xed;" horiz-adv-x="387" d="M108 1229l115 291h125l-174 -314zM143 0v993h101v-993h-101z" />
<glyph unicode="&#xee;" horiz-adv-x="387" d="M-35 1227l218 293h81l216 -285l-84 -29l-170 242l-177 -242zM143 0v993h101v-993h-101z" />
<glyph unicode="&#xef;" horiz-adv-x="387" d="M-29 1341q0 33 20.5 53.5t55.5 20.5q31 0 53.5 -21.5t22.5 -52.5q0 -33 -22.5 -54t-53.5 -21q-35 0 -55.5 21.5t-20.5 53.5zM143 0v993h101v-993h-101zM297 1341q0 33 20.5 53.5t55.5 20.5q31 0 53.5 -21.5t22.5 -52.5q0 -33 -22.5 -54t-53.5 -21q-35 0 -55.5 21.5 t-20.5 53.5z" />
<glyph unicode="&#xf0;" horiz-adv-x="1071" d="M82 502q0 147 54 265t158.5 185.5t248.5 67.5q147 -2 250 -80q-102 215 -304 367l-266 -136l-39 78l228 113q-100 63 -205 108l26 66q137 -55 263 -133l237 117l37 -72l-197 -98q209 -158 312.5 -376t103.5 -482q0 -147 -54 -265t-158.5 -186t-246.5 -68 q-215 2 -331.5 146.5t-116.5 382.5zM186 504q0 -125 40 -226.5t118 -161t186 -59.5q106 0 187.5 58.5t124.5 157.5t43 216q0 168 -41 312q-141 135 -303 135q-106 0 -187.5 -58.5t-124.5 -157.5t-43 -216z" />
<glyph unicode="&#xf1;" horiz-adv-x="1024" d="M143 0v993h78l21 -155q66 76 164 129t188 53q152 0 223.5 -89t71.5 -241v-690h-101v690q0 115 -41 180.5t-145 65.5q-162 0 -358 -201v-735h-101zM247 1253q0 92 48.5 139.5t121.5 47.5q88 0 134 -58q47 -59 98 -59q41 0 64.5 29.5t27.5 79.5h78q0 -92 -48 -139.5 t-122 -47.5q-70 0 -123 60q-55 57 -106 57q-82 0 -93 -109h-80z" />
<glyph unicode="&#xf2;" horiz-adv-x="1071" d="M82 502q0 147 54 265t158.5 185.5t248.5 67.5q215 -2 330.5 -146.5t115.5 -381.5q0 -147 -54 -265t-159 -186t-246 -68q-215 2 -331.5 146.5t-116.5 382.5zM186 504q0 -125 40 -226.5t118 -161t186 -59.5q106 0 187.5 58.5t124.5 157.5t43 216q0 125 -40 226.5t-118 161 t-186 59.5q-106 0 -187.5 -58.5t-124.5 -157.5t-43 -216zM374 1520h125l115 -291l-65 -23z" />
<glyph unicode="&#xf3;" horiz-adv-x="1071" d="M82 502q0 147 54 265t158.5 185.5t248.5 67.5q215 -2 330.5 -146.5t115.5 -381.5q0 -147 -54 -265t-159 -186t-246 -68q-215 2 -331.5 146.5t-116.5 382.5zM186 504q0 -125 40 -226.5t118 -161t186 -59.5q106 0 187.5 58.5t124.5 157.5t43 216q0 125 -40 226.5t-118 161 t-186 59.5q-106 0 -187.5 -58.5t-124.5 -157.5t-43 -216zM454 1229l115 291h125l-174 -314z" />
<glyph unicode="&#xf4;" horiz-adv-x="1071" d="M82 502q0 147 54 265t158.5 185.5t248.5 67.5q215 -2 330.5 -146.5t115.5 -381.5q0 -147 -54 -265t-159 -186t-246 -68q-215 2 -331.5 146.5t-116.5 382.5zM186 504q0 -125 40 -226.5t118 -161t186 -59.5q106 0 187.5 58.5t124.5 157.5t43 216q0 125 -40 226.5t-118 161 t-186 59.5q-106 0 -187.5 -58.5t-124.5 -157.5t-43 -216zM305 1227l218 293h81l216 -285l-84 -29l-170 242l-177 -242z" />
<glyph unicode="&#xf5;" horiz-adv-x="1071" d="M82 502q0 147 54 265t158.5 185.5t248.5 67.5q215 -2 330.5 -146.5t115.5 -381.5q0 -147 -54 -265t-159 -186t-246 -68q-215 2 -331.5 146.5t-116.5 382.5zM186 504q0 -125 40 -226.5t118 -161t186 -59.5q106 0 187.5 58.5t124.5 157.5t43 216q0 125 -40 226.5t-118 161 t-186 59.5q-106 0 -187.5 -58.5t-124.5 -157.5t-43 -216zM258 1253q0 92 48.5 139.5t121.5 47.5q88 0 134 -58q47 -59 98 -59q41 0 64.5 29.5t27.5 79.5h78q0 -92 -48 -139.5t-122 -47.5q-70 0 -123 60q-55 57 -106 57q-82 0 -93 -109h-80z" />
<glyph unicode="&#xf6;" horiz-adv-x="1071" d="M82 502q0 147 54 265t158.5 185.5t248.5 67.5q215 -2 330.5 -146.5t115.5 -381.5q0 -147 -54 -265t-159 -186t-246 -68q-215 2 -331.5 146.5t-116.5 382.5zM186 504q0 -125 40 -226.5t118 -161t186 -59.5q106 0 187.5 58.5t124.5 157.5t43 216q0 125 -40 226.5t-118 161 t-186 59.5q-106 0 -187.5 -58.5t-124.5 -157.5t-43 -216zM311 1341q0 33 20.5 53.5t55.5 20.5q31 0 53.5 -21.5t22.5 -52.5q0 -33 -22.5 -54t-53.5 -21q-35 0 -55.5 21.5t-20.5 53.5zM637 1341q0 33 20.5 53.5t55.5 20.5q31 0 53.5 -21.5t22.5 -52.5q0 -33 -22.5 -54 t-53.5 -21q-35 0 -55.5 21.5t-20.5 53.5z" />
<glyph unicode="&#xf7;" horiz-adv-x="1017" d="M61 598h875l20 -76h-878zM430 850q0 33 21.5 55.5t56.5 22.5q33 0 56.5 -22.5t23.5 -55.5t-23.5 -55.5t-56.5 -22.5q-35 0 -56.5 22.5t-21.5 55.5zM436 229q0 33 21.5 55.5t56.5 22.5q33 0 56.5 -22.5t23.5 -55.5t-23.5 -55t-56.5 -22q-35 0 -56.5 22.5t-21.5 54.5z" />
<glyph unicode="&#xf8;" horiz-adv-x="1071" d="M82 502q0 147 54 265t158.5 185.5t248.5 67.5q215 -2 330.5 -146t115.5 -382q0 -147 -54 -265t-158.5 -186t-246.5 -68q-215 2 -331.5 146.5t-116.5 382.5zM186 504q0 -113 33 -206.5t94 -154.5l389 750q-76 43 -161 43q-106 0 -187.5 -58.5t-124.5 -157.5t-43 -216z M389 90q66 -33 141 -33q106 0 187.5 58.5t124.5 157.5t43 216q0 102 -29 191.5t-82 150.5z" />
<glyph unicode="&#xf9;" horiz-adv-x="1024" d="M135 303v690h101v-690q0 -115 41 -180.5t145 -65.5q162 0 358 201v735h101v-993h-78l-21 156q-66 -76 -164 -129.5t-188 -53.5q-152 0 -223.5 89.5t-71.5 240.5zM337 1520h125l115 -291l-65 -23z" />
<glyph unicode="&#xfa;" horiz-adv-x="1024" d="M135 303v690h101v-690q0 -115 41 -180.5t145 -65.5q162 0 358 201v735h101v-993h-78l-21 156q-66 -76 -164 -129.5t-188 -53.5q-152 0 -223.5 89.5t-71.5 240.5zM417 1229l115 291h125l-174 -314z" />
<glyph unicode="&#xfb;" horiz-adv-x="1024" d="M135 303v690h101v-690q0 -115 41 -180.5t145 -65.5q162 0 358 201v735h101v-993h-78l-21 156q-66 -76 -164 -129.5t-188 -53.5q-152 0 -223.5 89.5t-71.5 240.5zM268 1227l218 293h81l216 -285l-84 -29l-170 242l-177 -242z" />
<glyph unicode="&#xfc;" horiz-adv-x="1024" d="M135 303v690h101v-690q0 -115 41 -180.5t145 -65.5q162 0 358 201v735h101v-993h-78l-21 156q-66 -76 -164 -129.5t-188 -53.5q-152 0 -223.5 89.5t-71.5 240.5zM274 1341q0 33 20.5 53.5t55.5 20.5q31 0 53.5 -21.5t22.5 -52.5q0 -33 -22.5 -54t-53.5 -21 q-35 0 -55.5 21.5t-20.5 53.5zM600 1341q0 33 20.5 53.5t55.5 20.5q31 0 53.5 -21.5t22.5 -52.5q0 -33 -22.5 -54t-53.5 -21q-35 0 -55.5 21.5t-20.5 53.5z" />
<glyph unicode="&#xfd;" horiz-adv-x="880" d="M20 971l95 37l327 -893l316 878h102l-368 -993v-471h-101v481zM344 1229l115 291h125l-174 -314z" />
<glyph unicode="&#xfe;" horiz-adv-x="1040" d="M156 -449v1874l100 21v-533q119 106 274 107q213 0 320.5 -143t107.5 -385q0 -231 -114.5 -375t-327.5 -144q-66 0 -134.5 27t-125.5 68v-494zM256 170q125 -113 264 -113q106 0 181 58.5t114 156.5t39 217q0 195 -82 321t-242 126q-90 0 -151.5 -34t-122.5 -99v-633z " />
<glyph unicode="&#xff;" horiz-adv-x="880" d="M20 971l95 37l327 -893l316 878h102l-368 -993v-471h-101v481zM200 1341q0 33 20.5 53.5t55.5 20.5q31 0 53.5 -21.5t22.5 -52.5q0 -33 -22.5 -54t-53.5 -21q-35 0 -55.5 21.5t-20.5 53.5zM526 1341q0 33 20.5 53.5t55.5 20.5q31 0 53.5 -21.5t22.5 -52.5 q0 -33 -22.5 -54t-53.5 -21q-35 0 -55.5 21.5t-20.5 53.5z" />
<glyph unicode="&#x152;" horiz-adv-x="1826" d="M102 688q0 205 76 372t220.5 264t338.5 97q57 0 139 -13t142 -36v21h758l10 -80h-668v-559h492l10 -80h-502v-594h656l12 -80h-768v25q-63 -23 -143 -38.5t-150 -15.5q-205 0 -345 97.5t-209 260.5t-69 359zM215 690q0 -170 59.5 -314.5t173 -230.5t267.5 -86 q100 0 170 15.5t133 44.5v1157q-70 29 -130.5 43t-154.5 14q-147 -2 -265 -80.5t-185.5 -224t-67.5 -338.5z" />
<glyph unicode="&#x153;" horiz-adv-x="1552" d="M82 502q0 150 55.5 267.5t159.5 184t248 66.5q59 0 143 -21.5t143 -56.5q104 78 254 78q113 0 201 -67.5t136 -187.5t48 -269h-714q2 -193 89 -316t261 -123q98 0 164 18.5t129 51.5l41 -76q-57 -35 -152.5 -56.5t-165.5 -21.5q-170 0 -288 82q-59 -35 -148.5 -58.5 t-155.5 -23.5q-215 0 -331.5 145.5t-116.5 383.5zM186 504q0 -125 40 -226.5t117.5 -161t186.5 -59.5q82 0 132.5 14.5t107.5 43.5q-119 139 -119 387q0 242 117 383q-51 25 -104.5 38t-122.5 13q-106 0 -187.5 -58.5t-124.5 -157.5t-43 -216zM760 571h604 q-16 162 -86 263.5t-207 101.5q-139 0 -218 -103.5t-93 -261.5z" />
<glyph unicode="&#x178;" horiz-adv-x="1085" d="M20 1368l101 43l409 -754l418 736h117l-483 -832v-561h-101v551zM287 1649q0 33 20.5 53t54.5 20q31 0 53.5 -21t22.5 -52q0 -33 -22.5 -54.5t-53.5 -21.5q-35 0 -55 21.5t-20 54.5zM612 1649q0 33 20.5 53t55.5 20q31 0 53.5 -21t22.5 -52q0 -33 -22.5 -54.5 t-53.5 -21.5q-35 0 -55.5 21.5t-20.5 54.5z" />
<glyph unicode="&#x2c6;" horiz-adv-x="555" d="M20 1227l218 293h81l216 -285l-84 -29l-170 242l-177 -242z" />
<glyph unicode="&#x2dc;" horiz-adv-x="612" d="M20 1253q0 92 48.5 139.5t121.5 47.5q88 0 134 -58q47 -59 98 -59q41 0 64.5 29.5t27.5 79.5h78q0 -92 -48 -139.5t-122 -47.5q-70 0 -123 60q-55 57 -106 57q-82 0 -93 -109h-80z" />
<glyph unicode="&#x2000;" horiz-adv-x="931" />
<glyph unicode="&#x2001;" horiz-adv-x="1862" />
<glyph unicode="&#x2002;" horiz-adv-x="931" />
<glyph unicode="&#x2003;" horiz-adv-x="1862" />
<glyph unicode="&#x2004;" horiz-adv-x="620" />
<glyph unicode="&#x2005;" horiz-adv-x="465" />
<glyph unicode="&#x2006;" horiz-adv-x="310" />
<glyph unicode="&#x2007;" horiz-adv-x="310" />
<glyph unicode="&#x2008;" horiz-adv-x="232" />
<glyph unicode="&#x2009;" horiz-adv-x="372" />
<glyph unicode="&#x200a;" horiz-adv-x="103" />
<glyph unicode="&#x2010;" horiz-adv-x="636" d="M61 598h498l16 -80h-497z" />
<glyph unicode="&#x2011;" horiz-adv-x="636" d="M61 598h498l16 -80h-497z" />
<glyph unicode="&#x2012;" horiz-adv-x="636" d="M61 598h498l16 -80h-497z" />
<glyph unicode="&#x2013;" horiz-adv-x="884" d="M61 600h746l16 -80h-745z" />
<glyph unicode="&#x2014;" horiz-adv-x="1073" d="M61 600h934l17 -80h-934z" />
<glyph unicode="&#x2018;" horiz-adv-x="311" d="M61 1149q0 94 46.5 171t130.5 118l32 -52q-123 -66 -125 -167q33 0 53.5 -26.5t20.5 -51.5q0 -33 -20.5 -56.5t-57.5 -23.5q-35 0 -57.5 27.5t-22.5 60.5z" />
<glyph unicode="&#x2019;" horiz-adv-x="311" d="M41 1112q123 66 125 168q-33 0 -53.5 26.5t-20.5 51.5q0 33 20.5 56.5t57.5 23.5q35 0 57.5 -28t22.5 -60q0 -94 -46 -171t-130 -118z" />
<glyph unicode="&#x201a;" horiz-adv-x="311" d="M41 -170q123 66 125 168q-33 0 -53.5 26.5t-20.5 51.5q0 33 20.5 56.5t57.5 23.5q35 0 57.5 -28t22.5 -60q0 -94 -46 -171t-130 -118z" />
<glyph unicode="&#x201c;" horiz-adv-x="563" d="M61 1149q0 94 46.5 171t130.5 118l32 -52q-123 -66 -125 -167q33 0 53.5 -26.5t20.5 -51.5q0 -33 -20.5 -56.5t-57.5 -23.5q-35 0 -57.5 27.5t-22.5 60.5zM313 1149q0 94 46.5 171t129.5 118l33 -52q-123 -66 -125 -167q33 0 53.5 -26.5t20.5 -51.5q0 -33 -20.5 -56.5 t-57.5 -23.5q-35 0 -57.5 27.5t-22.5 60.5z" />
<glyph unicode="&#x201d;" horiz-adv-x="563" d="M41 1112q123 66 125 168q-33 0 -53.5 26.5t-20.5 51.5q0 33 20.5 56.5t57.5 23.5q35 0 57.5 -28t22.5 -60q0 -94 -46 -171t-130 -118zM293 1112q123 66 125 168q-33 0 -53.5 26.5t-20.5 51.5q0 33 20.5 56.5t57.5 23.5q35 0 57.5 -28t22.5 -60q0 -94 -46 -171t-130 -118z " />
<glyph unicode="&#x201e;" horiz-adv-x="563" d="M41 -170q123 66 125 168q-33 0 -53.5 26.5t-20.5 51.5q0 33 20.5 56.5t57.5 23.5q35 0 57.5 -28t22.5 -60q0 -94 -46 -171t-130 -118zM293 -170q123 66 125 168q-33 0 -53.5 26.5t-20.5 51.5q0 33 20.5 56.5t57.5 23.5q35 0 57.5 -28t22.5 -60q0 -94 -46 -171t-130 -118z " />
<glyph unicode="&#x2022;" horiz-adv-x="374" d="M61 668q0 53 37 90t90 37q51 0 88 -37t37 -90q0 -51 -36.5 -88t-88.5 -37q-53 0 -90 36.5t-37 88.5z" />
<glyph unicode="&#x2026;" horiz-adv-x="731" d="M61 74q0 33 22.5 53t55.5 20q31 0 51.5 -20t20.5 -53t-20.5 -53.5t-51.5 -20.5q-33 0 -55.5 20.5t-22.5 53.5zM291 74q0 33 22.5 53t55.5 20q31 0 51 -20t20 -53t-20.5 -53.5t-50.5 -20.5q-33 0 -55.5 20.5t-22.5 53.5zM520 74q0 33 22.5 53t55.5 20q31 0 51.5 -20 t20.5 -53t-20.5 -53.5t-51.5 -20.5q-33 0 -55.5 20.5t-22.5 53.5z" />
<glyph unicode="&#x202f;" horiz-adv-x="372" />
<glyph unicode="&#x2039;" horiz-adv-x="432" d="M61 473v57l287 306l43 -72l-244 -262l244 -262l-43 -70z" />
<glyph unicode="&#x203a;" horiz-adv-x="432" d="M41 242l244 262l-244 262l43 70l287 -304v-57l-287 -305z" />
<glyph unicode="&#x205f;" horiz-adv-x="465" />
<glyph unicode="&#x20ac;" horiz-adv-x="1214" d="M0 543h195q-10 78 -11 145q0 68 11 146h-185l-10 79h211q53 229 213 368.5t395 139.5q76 0 179.5 -20.5t154.5 -54.5l-41 -74q-78 33 -137.5 47t-159.5 14q-176 -2 -308 -113.5t-183 -306.5h497l10 -79h-524q-10 -76 -10 -144q0 -76 12 -147h512l10 -80h-503 q49 -180 172 -292t297 -112q100 0 170.5 16.5t136.5 45.5l49 -74q-57 -31 -158.5 -53.5t-187.5 -22.5q-242 0 -394.5 135.5t-203.5 356.5h-199z" />
<glyph unicode="&#x2122;" horiz-adv-x="1456" d="M20 1327v66h570l6 -66h-242v-700h-90v700h-244zM739 627v766h39l273 -404l262 404h41v-766h-78v569l-213 -313l-25 -4l-215 315v-567h-84z" />
<glyph unicode="&#x25fc;" horiz-adv-x="1013" d="M0 0v1014h1014v-1014h-1014z" />
<glyph unicode="&#xfb01;" horiz-adv-x="927" d="M41 887v76h149v190q0 133 54.5 209t161.5 76q66 0 135 -27l-25 -76q-12 6 -38.5 12.5t-45.5 6.5q-141 0 -141 -168v-223h180l43 -76h-223v-1358h-101v1358h-149zM656 1307q0 33 21.5 55t56.5 22q33 0 56 -22t23 -55t-22.5 -55.5t-56.5 -22.5q-35 0 -56.5 22.5t-21.5 55.5 zM684 0v993h101v-993h-101z" />
<glyph unicode="&#xfb02;" horiz-adv-x="968" d="M41 887v76h149v190q0 133 54.5 209t161.5 76q66 0 135 -27l-25 -76q-12 6 -38.5 12.5t-45.5 6.5q-141 0 -141 -168v-223h180l43 -76h-223v-1358h-101v1358h-149zM705 0v1425l100 21v-1446h-100z" />
</font>
</defs>
</svg>
