<?xml version="1.0" standalone="no"?>
<!DOCTYPE svg PUBLIC "-//W3C//DTD SVG 1.1//EN" "http://www.w3.org/Graphics/SVG/1.1/DTD/svg11.dtd" >
<svg xmlns="http://www.w3.org/2000/svg">
<metadata></metadata>
<defs>
<font id="mosk_normal_400regular" horiz-adv-x="1247" >
<font-face units-per-em="2048" ascent="1638" descent="-410" />
<missing-glyph horiz-adv-x="477" />
<glyph horiz-adv-x="0" />
<glyph horiz-adv-x="682" />
<glyph unicode=" "  horiz-adv-x="477" />
<glyph unicode="&#x09;" horiz-adv-x="477" />
<glyph unicode="&#xa0;" horiz-adv-x="477" />
<glyph unicode="!" horiz-adv-x="346" d="M61 111q0 45 34 76.5t79 31.5t78 -31.5t33 -76.5t-32 -78t-79 -33q-45 0 -79 33t-34 78zM82 1438h184l-33 -1037l-116 58z" />
<glyph unicode="&#x22;" horiz-adv-x="671" d="M41 1067q55 39 85 78t36 92q-39 2 -66.5 36t-27.5 75q0 43 33.5 76.5t78.5 33.5t79 -36t34 -93q0 -98 -61.5 -195.5t-147.5 -142.5zM360 1067q55 39 85 78t38 92q-39 2 -66.5 36t-27.5 75q0 43 33 76.5t78 33.5t77.5 -36t32.5 -93q0 -98 -60.5 -195.5t-146.5 -142.5z" />
<glyph unicode="#" horiz-adv-x="1062" d="M61 393h168l60 260h-209l-19 125h261l61 260l135 -2l-63 -258h272l59 260l138 -2l-62 -258h123l16 -125h-170l-61 -260h215l16 -125h-260l-63 -274l-133 10l61 264h-270l-66 -274l-133 10l62 264h-119zM365 393h270l61 260h-268z" />
<glyph unicode="$" horiz-adv-x="1050" d="M88 1075q0 113 70.5 200t195.5 126v219l117 20v-217l61 2q25 0 70 -4v201l119 20v-241q86 -23 168 -62l-55 -125q-76 35 -138.5 53.5t-152.5 18.5q-135 0 -216 -55t-81 -154q0 -74 40 -126t113.5 -95t216.5 -108q129 -59 208 -114.5t120 -126.5t41 -169 q0 -115 -68.5 -202t-195.5 -130v-242h-119v218q-47 -8 -108 -9h-23v-209h-117v224q-74 12 -140 33.5t-103 46.5l39 127q66 -33 158.5 -58.5t183.5 -25.5q160 0 246.5 62.5t86.5 162.5q0 72 -41 126t-117.5 98t-209.5 102q-190 82 -279.5 178t-89.5 235z" />
<glyph unicode="%" horiz-adv-x="1765" d="M162 1094q0 92 65 170q35 39 79 60.5t87 21.5q94 0 158 -82q72 -84 72 -177q0 -88 -66 -169q-76 -82 -168 -82q-45 0 -86 20.5t-72 61.5q-69 86 -69 176zM272 1087q0 -43 25 -96q14 -35 38.5 -52t51.5 -17q47 0 82 47q43 66 43 123q0 43 -25 98q-14 35 -38.5 52.5 t-51.5 17.5q-47 0 -82 -48q-43 -66 -43 -125zM489 0l627 1454l158 -8l-627 -1454zM1147 350q0 88 65 170q72 80 166 80q43 0 85 -20.5t73 -59.5q70 -86 70 -176q0 -92 -66 -170q-72 -82 -166 -82q-92 0 -155 82q-72 82 -72 176zM1257 346q0 -45 25 -100q14 -35 37.5 -52.5 t50.5 -17.5q47 0 84 49q41 59 41 123q0 47 -22 98q-14 35 -39 52.5t-52 17.5q-47 0 -82 -47q-43 -66 -43 -123z" />
<glyph unicode="&#x26;" horiz-adv-x="1368" d="M88 430q2 129 62.5 240.5t158.5 177.5q-63 92 -63 209q0 100 46 184t134 134t207 50q94 0 170 -22.5t158 -63.5l-58 -125q-14 6 -53 24.5t-89 34t-128 15.5q-102 0 -164.5 -65.5t-62.5 -153.5q0 -90 45 -154.5t161 -173.5l404 -379q72 141 88 357l131 -51 q-12 -244 -100 -410l168 -154l-86 -112l-166 151q-158 -170 -437 -170q-150 2 -269.5 54.5t-188 155t-68.5 247.5zM252 434q0 -156 106 -237.5t256 -81.5q207 0 324 133l-459 420q-55 51 -76 75q-70 -45 -109.5 -125.5t-41.5 -183.5z" />
<glyph unicode="'" horiz-adv-x="354" d="M41 1067q55 39 85 78t36 92q-39 2 -66.5 36t-27.5 75q0 43 33.5 76.5t78.5 33.5t79 -36t34 -93q0 -98 -61.5 -195.5t-147.5 -142.5z" />
<glyph unicode="(" horiz-adv-x="542" d="M102 655q0 180 62.5 376t185.5 355l131 -47q-57 -66 -108 -189.5t-82 -259t-31 -233.5q0 -100 31 -238t82 -262t108 -188l-131 -47q-121 158 -184.5 354.5t-63.5 378.5z" />
<glyph unicode=")" horiz-adv-x="542" d="M61 -31q55 66 106.5 190t83.5 261t32 235t-32 235.5t-83 261.5t-107 187l132 47q121 -158 184 -353t63 -378q0 -178 -63.5 -372.5t-183.5 -360.5z" />
<glyph unicode="*" horiz-adv-x="718" d="M20 1298l35 107l238 -51l4 227h125l2 -227l240 51l34 -107l-239 -47l168 -239l-95 -72l-172 231l-172 -231l-96 72l170 239z" />
<glyph unicode="+" horiz-adv-x="1097" d="M61 625h414v469l150 -7v-462h391l20 -129h-411v-488l-150 8v480h-397z" />
<glyph unicode="," horiz-adv-x="354" d="M41 -170q57 41 88 80t35 92q-37 2 -65.5 35t-28.5 74q0 43 32.5 75.5t77.5 32.5q49 0 81 -34.5t32 -92.5q0 -98 -60.5 -195.5t-148.5 -142.5z" />
<glyph unicode="-" horiz-adv-x="655" d="M61 625h517l16 -129h-514z" />
<glyph unicode="." horiz-adv-x="344" d="M61 111q0 45 33 76.5t80 31.5q45 0 77 -31.5t32 -76.5t-32 -78t-77 -33q-47 0 -80 31.5t-33 79.5z" />
<glyph unicode="/" horiz-adv-x="823" d="M20 0l627 1454l156 -8l-627 -1454z" />
<glyph unicode="0" horiz-adv-x="1214" d="M68 588q0 172 69.5 308t192.5 213t278 77q154 0 277 -77t192.5 -212t69.5 -305q0 -176 -69.5 -317.5t-192.5 -221.5t-277 -80q-156 0 -278.5 79t-192 219.5t-69.5 316.5zM227 594q0 -137 49.5 -246.5t136.5 -172t195 -62.5q109 0 196 60t135 168t48 243q0 133 -48 239.5 t-135 166t-196 59.5t-195.5 -58.5t-136 -162t-49.5 -234.5z" />
<glyph unicode="1" horiz-adv-x="638" d="M20 991l363 168h109v-1159h-164v971l-236 -111z" />
<glyph unicode="2" horiz-adv-x="980" d="M51 0v117l434 377q127 109 180.5 184.5t53.5 161.5q0 104 -73 158.5t-200 54.5q-98 0 -165.5 -28t-155.5 -77l-47 131q78 47 165 77t206 30q197 0 312.5 -89t115.5 -241q0 -117 -70 -225.5t-236 -247.5l-305 -256h647l27 -127h-889z" />
<glyph unicode="3" horiz-adv-x="948" d="M0 -45l84 115q80 -49 152.5 -72t173.5 -23q78 0 146.5 30t111.5 86t43 130q0 127 -92.5 196.5t-286.5 69.5h-49l-25 121h86q158 0 250 64.5t92 173.5q0 86 -70.5 147.5t-187.5 61.5q-96 0 -178 -30t-144 -73l-79 107q199 127 407 127q133 0 226.5 -46t140.5 -124t47 -168 q0 -102 -62.5 -183t-154.5 -114q104 -25 172.5 -114t68.5 -212q0 -106 -58 -193t-164.5 -137.5t-246.5 -50.5q-104 0 -209.5 32t-193.5 79z" />
<glyph unicode="4" horiz-adv-x="1073" d="M20 276l687 893h112v-893h213l-18 -133h-195v-284h-162v284h-614zM195 276h462v611z" />
<glyph unicode="5" horiz-adv-x="1015" d="M68 -45l82 115q82 -47 154.5 -70t170.5 -23q141 0 226 81t85 216q0 133 -71.5 209t-190.5 76q-72 0 -132 -31.5t-97 -68.5h-156l33 700h698l-18 -133h-533l-18 -401q49 31 105.5 48t107.5 17q215 0 323.5 -116.5t110.5 -299.5q0 -119 -56 -217t-165 -155.5t-260 -57.5 q-102 0 -206.5 32t-192.5 79z" />
<glyph unicode="6" horiz-adv-x="1046" d="M68 524q0 221 110.5 389t280.5 265.5t346 119.5l37 -127q-125 -14 -251 -74.5t-222.5 -168t-128.5 -250.5q137 115 303 115q133 0 232 -53.5t152.5 -145.5t53.5 -205q0 -117 -56.5 -212t-155.5 -149.5t-222 -54.5q-137 0 -245.5 63.5t-171 188.5t-62.5 299zM225 514 q6 -197 89 -300t227 -103q129 0 207.5 76.5t78.5 191.5q0 129 -77.5 207t-210.5 78q-86 0 -167 -42t-147 -108z" />
<glyph unicode="7" horiz-adv-x="901" d="M20 1159h787l53 -72l-452 -1228l-154 47l426 1120h-639z" />
<glyph unicode="8" horiz-adv-x="1056" d="M68 354q0 72 36.5 144.5t98 126t131.5 69.5q-92 39 -151.5 115t-59.5 170q0 90 48 167t140 124t219 47t218.5 -47t139.5 -124t48 -167q0 -94 -61.5 -169t-149.5 -116q70 -18 131.5 -67t98 -121t36.5 -152q0 -102 -54 -189t-158.5 -139.5t-248.5 -52.5q-145 0 -249.5 51.5 t-158.5 137.5t-54 192zM225 350q0 -109 87 -176.5t218 -67.5q125 0 214.5 67.5t89.5 176.5q0 111 -79 187.5t-225 95.5q-150 -18 -227.5 -95t-77.5 -188zM279 975q0 -82 66.5 -144.5t184.5 -80.5q117 18 183.5 80.5t66.5 144.5q0 90 -67.5 150.5t-188.5 60.5 q-117 0 -181 -61.5t-64 -149.5z" />
<glyph unicode="9" horiz-adv-x="1046" d="M68 770q0 119 56 213t155.5 148.5t222.5 54.5q137 0 245.5 -63.5t171 -188.5t62.5 -299q0 -221 -110.5 -389t-280.5 -265.5t-346 -119.5l-37 127q125 14 251 75.5t222 169t129 250.5q-143 -117 -303 -116q-135 0 -234.5 53t-151.5 145t-52 205zM221 780q0 -127 77 -204.5 t210 -77.5q86 0 168 42t147 107q-8 197 -91 300.5t-224 103.5q-129 0 -208 -78t-79 -193z" />
<glyph unicode=":" horiz-adv-x="344" d="M61 166q0 47 33 80t78 33q47 0 79 -33t32 -80q0 -45 -32 -78t-79 -33q-45 0 -78 33t-33 78zM61 823q0 45 33 79t78 34t78 -34t33 -79t-33 -77.5t-78 -32.5t-78 32.5t-33 77.5z" />
<glyph unicode=";" horiz-adv-x="356" d="M41 -115q57 41 88 80t35 92q-39 4 -66.5 35t-27.5 74q0 45 32.5 79t77.5 34q49 0 81 -37t32 -97q0 -96 -60.5 -193t-148.5 -142zM72 823q0 45 32.5 79t79.5 34q45 0 78 -34t33 -79t-33 -77.5t-78 -32.5q-47 0 -79.5 32.5t-32.5 77.5z" />
<glyph unicode="&#x3c;" horiz-adv-x="673" d="M61 451v102l525 410l47 -123l-418 -338l418 -338l-47 -125z" />
<glyph unicode="=" horiz-adv-x="1028" d="M61 393h889l17 -125h-887zM61 778h889l17 -125h-887z" />
<glyph unicode="&#x3e;" horiz-adv-x="673" d="M41 164l418 338l-418 338l47 123l524 -410v-102l-524 -412z" />
<glyph unicode="?" horiz-adv-x="843" d="M20 1315q98 63 179.5 93t191.5 30q195 0 293 -93.5t98 -250.5q0 -115 -99 -230.5t-263 -191.5l-21 -367l-118 47l-17 402q162 51 259.5 141t97.5 197q0 106 -59.5 156t-176.5 50q-94 0 -173 -30.5t-171 -93.5zM225 111q0 45 32 76.5t77 31.5q47 0 79.5 -31.5t32.5 -76.5 t-32.5 -78t-79.5 -33q-45 0 -77 32t-32 79z" />
<glyph unicode="@" horiz-adv-x="1564" d="M68 442q0 213 97 391.5t278.5 283t420.5 104.5q184 0 328.5 -77t225.5 -213t81 -306q0 -240 -94 -367t-256 -127q-106 0 -166 66q-41 -27 -92 -45.5t-100 -18.5q-168 0 -254 82t-86 223q0 121 64.5 215.5t170 145.5t225.5 51h150l51 -62l-49 -413q-6 -61 25.5 -90 t74.5 -29q86 0 141.5 96.5t55.5 257.5q0 141 -61.5 251t-175 171.5t-263.5 61.5q-170 0 -316.5 -80t-234.5 -228.5t-88 -341.5q0 -158 70.5 -277.5t191.5 -183t267 -63.5q88 0 179 18.5t156 53.5l41 -121q-166 -86 -399 -86q-170 0 -321.5 83t-244.5 233.5t-93 340.5z M602 438q0 -74 46 -128t140 -54q47 0 85 17.5t59 48.5q-4 20 -4 36q0 18 2 29l45 350h-64q-84 0 -154.5 -35.5t-112.5 -103.5t-42 -160z" />
<glyph unicode="A" d="M20 0l517 1393h155l535 -1381l-160 -26l-156 409h-587l-146 -395h-158zM369 526h495l-252 654z" />
<glyph unicode="B" horiz-adv-x="1208" d="M190 0v1393h388q231 0 360 -85t129 -284q0 -92 -53 -160.5t-140 -118.5q127 -43 198 -131t71 -223q0 -203 -141.5 -297t-374.5 -94h-437zM352 135h273q354 0 354 252q0 137 -88 202.5t-246 65.5h-293v-520zM352 786h189q164 2 263 56.5t99 179.5q0 135 -83 184t-249 49 h-219v-469z" />
<glyph unicode="C" horiz-adv-x="1140" d="M88 688q0 207 80 374t229 263t346 96q76 0 182.5 -21.5t166.5 -58.5l-52 -116q-82 31 -141 44t-156 13q-135 0 -246.5 -76t-175 -211t-63.5 -305q0 -160 55.5 -292t162 -208.5t249.5 -76.5q98 0 171 16t136 45l62 -123q-63 -33 -169 -56.5t-194 -23.5q-205 0 -350 96.5 t-219 260.5t-74 360z" />
<glyph unicode="D" horiz-adv-x="1374" d="M190 0v1393h488q307 0 458.5 -190.5t151.5 -497.5q0 -203 -71.5 -362t-212 -251t-338.5 -92h-476zM352 135h316q137 0 240.5 68.5t160.5 196.5t57 302q0 250 -111.5 401.5t-328.5 151.5h-334v-1120z" />
<glyph unicode="E" horiz-adv-x="1071" d="M190 0v1393h822l18 -121h-678v-500h482l18 -121h-500v-522h658l20 -129h-840z" />
<glyph unicode="F" horiz-adv-x="985" d="M190 0v1393h734l20 -121h-592v-508h461l18 -121h-479v-643h-162z" />
<glyph unicode="G" horiz-adv-x="1284" d="M88 688q0 213 94 380t258 260t365 93q76 0 183.5 -21.5t166.5 -58.5l-51 -116q-82 31 -141.5 44t-153.5 13q-145 0 -271 -70.5t-203 -205t-77 -316.5q0 -174 68.5 -305t188.5 -201.5t269 -70.5q123 0 238 41v442h-307l14 121h449l-2 -649q-66 -41 -176.5 -69t-213.5 -28 q-209 0 -367.5 94.5t-244.5 257t-86 365.5z" />
<glyph unicode="H" horiz-adv-x="1357" d="M190 0v1393l162 10v-635h654v625h161v-1393h-161v637h-654v-637h-162z" />
<glyph unicode="I" horiz-adv-x="540" d="M190 0v1393h162v-1393h-162z" />
<glyph unicode="J" horiz-adv-x="522" d="M20 -96q76 27 110 51.5t48.5 63t14.5 116.5v1258h161v-1293q0 -88 -24.5 -144t-82 -94t-163.5 -71z" />
<glyph unicode="K" d="M190 0v1393h162v-676l672 706l111 -96l-519 -543l611 -784h-195l-522 670l-158 -166v-504h-162z" />
<glyph unicode="L" horiz-adv-x="1036" d="M190 0v1393h162v-1264h647l17 -129h-826z" />
<glyph unicode="M" horiz-adv-x="1562" d="M190 0v1393h97l499 -711l484 711h102v-1393h-164v1049l-389 -580l-55 -10l-412 594v-1053h-162z" />
<glyph unicode="N" horiz-adv-x="1433" d="M190 0v1393h129l678 -942l84 -138v1080h164v-1393h-131l-708 1001l-54 93v-1094h-162z" />
<glyph unicode="O" horiz-adv-x="1484" d="M88 690q0 207 85 373t234.5 262t337.5 100q186 0 336 -92t234 -256t84 -370q0 -207 -85 -374t-236.5 -263.5t-340.5 -98.5q-186 0 -333.5 92.5t-231.5 256t-84 370.5zM258 692q0 -166 61.5 -298t169 -206.5t244.5 -74.5q141 0 253 75.5t175.5 211t63.5 305.5 q0 166 -61.5 298t-169 206.5t-244.5 74.5q-141 0 -253 -77t-175.5 -211t-63.5 -304z" />
<glyph unicode="P" horiz-adv-x="1150" d="M190 0v1393h379q236 0 375 -103.5t139 -322.5q-2 -217 -151.5 -329t-382.5 -112h-197v-526h-162zM352 664h203q162 0 260.5 72.5t102.5 224.5q0 162 -88.5 228t-258.5 66h-219v-591z" />
<glyph unicode="Q" horiz-adv-x="1484" d="M88 690q0 207 85 373t234.5 262t337.5 100q186 0 336 -92t234 -256t84 -370q0 -162 -53.5 -300.5t-149.5 -238.5l129 -125l-96 -84l-131 125q-162 -111 -361 -113q-186 0 -333.5 92.5t-231.5 256t-84 370.5zM258 692q0 -166 61.5 -298t169 -206.5t244.5 -74.5h4 q138 0 248 75l-207 195l113 84l192 -188q68 80 105 189.5t37 236.5q0 166 -61.5 298t-169 206.5t-244.5 74.5q-141 0 -253 -77t-175.5 -211t-63.5 -304z" />
<glyph unicode="R" horiz-adv-x="1212" d="M190 0v1393h379q236 0 375 -98.5t139 -307.5q-2 -135 -67.5 -226t-177.5 -138l354 -623h-178l-320 580q-74 -8 -145 -9h-197v-571h-162zM352 705h203q162 0 261.5 64.5t101.5 211.5q0 154 -90.5 214t-256.5 60h-219v-550z" />
<glyph unicode="S" horiz-adv-x="1050" d="M88 1075q0 98 54.5 178t155.5 126t234 46q98 0 191.5 -24.5t165.5 -61.5l-55 -125q-76 35 -138.5 53.5t-152.5 18.5q-135 0 -216 -55t-81 -154q0 -74 40 -126t113.5 -95t216.5 -108q129 -59 208 -114.5t120 -126.5t41 -169q0 -106 -58.5 -188t-169.5 -129.5t-263 -47.5 q-90 0 -209 29t-174 66l39 127q66 -33 158.5 -58.5t183.5 -25.5q160 0 246.5 62.5t86.5 162.5q0 72 -41 126t-117.5 98t-209.5 102q-190 82 -279.5 178t-89.5 235z" />
<glyph unicode="T" horiz-adv-x="1153" d="M20 1266v127h1094l19 -127h-482v-1266h-164v1266h-467z" />
<glyph unicode="U" horiz-adv-x="1396" d="M170 494v899h162v-881q0 -178 100 -288.5t266 -110.5q168 0 266.5 110.5t98.5 288.5v881h164v-899q0 -147 -64.5 -266t-184.5 -186t-280 -67t-279.5 68t-184 184.5t-64.5 266.5z" />
<glyph unicode="V" d="M20 1382l160 25l455 -1192l434 1178h158l-516 -1393h-156z" />
<glyph unicode="W" horiz-adv-x="1755" d="M20 1382l160 25l322 -1186l301 1172h158l315 -1172l303 1172h156l-381 -1393h-156l-319 1151l-301 -1151h-156z" />
<glyph unicode="X" horiz-adv-x="1206" d="M20 0l500 705l-446 655l135 67l424 -628l379 594h174l-469 -711l440 -682h-176l-375 588l-411 -588h-175z" />
<glyph unicode="Y" horiz-adv-x="1153" d="M20 1360l152 65l391 -706l395 674h175l-488 -826l-2 -567h-162v559z" />
<glyph unicode="Z" horiz-adv-x="1150" d="M47 129l877 1137h-797l-25 127h988l14 -127l-879 -1137h846l14 -129h-1022z" />
<glyph unicode="[" horiz-adv-x="606" d="M205 -180v1605h381l-23 -120h-205v-1366h205l23 -119h-381z" />
<glyph unicode="\" horiz-adv-x="823" d="M20 1446l158 8l625 -1454l-156 -8z" />
<glyph unicode="]" horiz-adv-x="604" d="M20 -180l23 119h201v1366h-201l-23 120h379v-1605h-379z" />
<glyph unicode="^" horiz-adv-x="864" d="M20 293l347 506h131l346 -506h-162l-250 369l-250 -369h-162z" />
<glyph unicode="_" horiz-adv-x="901" d="M61 129h760l19 -129h-760z" />
<glyph unicode="`" horiz-adv-x="329" d="M20 1526h179l110 -289l-108 -31z" />
<glyph unicode="a" horiz-adv-x="999" d="M102 283q0 143 98.5 223t260.5 80h256v55q0 111 -52 174.5t-165 63.5q-88 0 -150.5 -17.5t-136.5 -50.5l-47 123q53 37 156.5 61.5t171.5 24.5q113 0 200.5 -43t137 -119t49.5 -172v-686h-121l-21 100q-55 -51 -137 -89t-160 -38q-166 0 -253 86t-87 224zM252 283 q0 -72 47 -125.5t139 -53.5q80 0 153 41t128 107v225h-262q-96 0 -150.5 -56t-54.5 -138z" />
<glyph unicode="b" horiz-adv-x="1083" d="M150 0v1425l161 21v-502q55 37 116.5 56.5t115.5 19.5q221 0 347 -144t126 -382q0 -152 -58.5 -270t-166 -184.5t-252.5 -66.5q-61 0 -130 26t-128 73l-35 -72h-96zM311 199q49 -43 104.5 -65.5t127.5 -22.5q147 0 227 106.5t82 274.5q0 176 -79 283.5t-228 107.5 q-74 0 -129.5 -22.5t-104.5 -69.5v-592z" />
<glyph unicode="c" horiz-adv-x="937" d="M68 500q0 152 60 269.5t171 184t258 66.5q68 0 165 -25.5t157 -64.5l-50 -115q-82 35 -136 51.5t-140 16.5q-147 0 -233.5 -107.5t-88.5 -273.5q0 -174 82 -282.5t232 -108.5q90 0 147.5 16t128.5 53l51 -117q-61 -39 -159.5 -64.5t-165.5 -25.5q-147 0 -256 66.5 t-166 186.5t-57 274z" />
<glyph unicode="d" horiz-adv-x="1085" d="M68 502q0 152 58 269.5t165.5 183t253.5 65.5q53 0 113.5 -20.5t115.5 -55.5v481l164 19v-1444h-98l-31 76q-61 -49 -133 -76t-135 -27q-221 0 -347 144.5t-126 384.5zM231 504q0 -178 79 -285.5t229 -107.5q74 0 130 23.5t105 72.5v588q-98 88 -233 88 q-147 0 -227.5 -105.5t-82.5 -273.5z" />
<glyph unicode="e" horiz-adv-x="1021" d="M68 500q0 152 54 269.5t159.5 184t248.5 66.5q217 0 320.5 -151.5t103.5 -397.5h-721q6 -168 91.5 -265t261.5 -97q80 0 146.5 20.5t158.5 65.5l51 -119q-84 -47 -168 -75t-186 -28q-254 0 -387 143.5t-133 383.5zM238 582h557q-35 301 -271 301q-127 0 -199.5 -81 t-86.5 -220z" />
<glyph unicode="f" horiz-adv-x="612" d="M33 977h151v156q0 139 75 222t204 83q41 0 82 -10.5t67 -24.5l-37 -131q-16 8 -42.5 14t-47.5 6q-139 0 -139 -170v-145h182l54 -123h-236v-1325h-162v1325h-149z" />
<glyph unicode="g" horiz-adv-x="1077" d="M68 502q0 152 58 269.5t165.5 183t253.5 65.5q61 0 130.5 -26.5t129.5 -71.5l35 71h98v-1102q0 -104 -53.5 -186t-155.5 -129t-240 -47q-70 0 -177 25.5t-169 64.5l50 119q80 -39 142 -57.5t148 -18.5q129 0 210 59.5t81 172.5v157q-55 -37 -117.5 -57.5t-115.5 -20.5 q-221 0 -347 144.5t-126 384.5zM231 504q0 -178 79 -285.5t229 -107.5q74 0 130 23.5t105 72.5v588q-98 88 -233 88q-147 0 -227.5 -105.5t-82.5 -273.5z" />
<glyph unicode="h" horiz-adv-x="1103" d="M150 0v1425l161 21v-580q72 70 171.5 114t189.5 44q158 0 234.5 -95t76.5 -255v-672h-162v649q0 111 -41 172.5t-137 61.5q-74 0 -167 -51.5t-165 -128.5v-705h-161z" />
<glyph unicode="i" horiz-adv-x="419" d="M100 1300q0 47 31 79t78 32q45 0 77.5 -33t32.5 -78t-32.5 -76.5t-77.5 -31.5q-47 0 -78 30.5t-31 77.5zM129 0v993h164v-993h-164z" />
<glyph unicode="j" horiz-adv-x="466" d="M125 1300q0 47 31.5 79t79.5 32q45 0 77.5 -32.5t32.5 -78.5q0 -45 -32.5 -76.5t-77.5 -31.5q-47 0 -79 30.5t-32 77.5zM154 -471v1464h163v-1464h-163z" />
<glyph unicode="k" horiz-adv-x="966" d="M150 0v1425l161 21v-879l451 453l98 -102l-303 -302l410 -616h-191l-327 510l-138 -137v-373h-161z" />
<glyph unicode="l" horiz-adv-x="458" d="M150 0v1425l161 21v-1446h-161z" />
<glyph unicode="m" horiz-adv-x="1675" d="M129 0v993h121l26 -141q72 74 171.5 123t187.5 49q100 0 166.5 -45t99.5 -127q72 74 170 123t186 49q152 0 225.5 -95t73.5 -255v-672h-161v649q0 111 -37 172.5t-127 61.5q-63 0 -146.5 -46t-154.5 -118l2 -47v-672h-162v649q0 111 -37 172.5t-127 61.5 q-66 0 -155 -51.5t-160 -128.5v-705h-162z" />
<glyph unicode="n" horiz-adv-x="1083" d="M129 0v993h121l26 -141q72 74 176.5 123t198.5 49q158 0 235 -95t77 -255v-672h-162v649q0 111 -41 172.5t-137 61.5q-74 0 -167.5 -51.5t-164.5 -128.5v-705h-162z" />
<glyph unicode="o" horiz-adv-x="1097" d="M68 500q2 152 60 269.5t169 184t258 66.5q223 0 350 -142.5t127 -383.5q0 -152 -60.5 -270t-172.5 -184.5t-262 -66.5q-143 0 -250 66.5t-163 186.5t-56 274zM231 502q0 -174 82 -282.5t232 -108.5q147 0 233 107.5t88 273.5q0 176 -82 283.5t-231 107.5 q-147 0 -233.5 -107.5t-88.5 -273.5z" />
<glyph unicode="p" horiz-adv-x="1075" d="M141 -471v1464h97l34 -69q61 45 131 70.5t132 25.5q221 0 347 -144t126 -382q0 -152 -58.5 -270t-166 -184.5t-253.5 -66.5q-109 0 -227 76v-520h-162zM303 199q49 -43 104.5 -65.5t127.5 -22.5q147 0 227 106.5t82 274.5q0 176 -79 283.5t-228 107.5q-74 0 -129.5 -22.5 t-104.5 -69.5v-592z" />
<glyph unicode="q" horiz-adv-x="1077" d="M68 502q0 152 58 269.5t165.5 183t253.5 65.5q61 0 129.5 -25.5t128.5 -70.5l37 69h98v-1464h-164v522q-55 -37 -117.5 -57.5t-115.5 -20.5q-221 0 -347 144.5t-126 384.5zM231 504q0 -178 79 -285.5t229 -107.5q74 0 130 23.5t105 72.5v588q-98 88 -233 88 q-147 0 -227.5 -105.5t-82.5 -273.5z" />
<glyph unicode="r" horiz-adv-x="663" d="M129 0v993h96l51 -159q68 57 162 108t166 51l39 -129q-82 0 -182.5 -54t-169.5 -126v-684h-162z" />
<glyph unicode="s" horiz-adv-x="860" d="M72 739q0 131 99 206t271 75q70 0 163 -24.5t147 -63.5l-52 -111q-68 31 -127 49.5t-135 18.5q-92 0 -150.5 -40t-58.5 -104q2 -53 61.5 -92t170.5 -75q334 -123 334 -316q0 -137 -103.5 -213t-296.5 -76q-70 0 -166 22.5t-151 61.5l51 117q139 -70 268 -70 q113 0 178.5 39t65.5 109q0 111 -246 192q-143 47 -233 117t-90 178z" />
<glyph unicode="t" horiz-adv-x="655" d="M33 977h145v254l162 45v-299h180l53 -123h-233v-573q0 -80 35 -125t106 -45q39 0 90 20l37 -127q-74 -35 -151 -35q-129 0 -204 75t-75 214v596h-143z" />
<glyph unicode="u" horiz-adv-x="1083" d="M121 322v671h162v-649q0 -111 41 -172t137 -61q74 0 167 51t165 129v704h161v-995h-120l-27 143q-72 -74 -176.5 -123t-198.5 -49q-158 0 -234.5 95.5t-76.5 255.5z" />
<glyph unicode="v" horiz-adv-x="933" d="M20 965l148 61l297 -807l285 774h163l-370 -993h-158z" />
<glyph unicode="w" horiz-adv-x="1376" d="M20 963l148 61l221 -793l209 762h164l221 -762l209 762h164l-293 -993h-160l-225 756l-211 -756h-158z" />
<glyph unicode="x" horiz-adv-x="921" d="M20 0l334 504l-299 457l146 61l268 -422l254 393h178l-342 -516l311 -477h-178l-246 383l-243 -383h-183z" />
<glyph unicode="y" horiz-adv-x="933" d="M20 965l148 61l297 -807l285 774h163l-368 -989v-475h-164v481z" />
<glyph unicode="z" horiz-adv-x="886" d="M43 84l592 780h-504l-39 129h744l8 -86l-602 -780h577l21 -127h-777z" />
<glyph unicode="{" horiz-adv-x="557" d="M61 578v106h74q55 0 95 44t40 112t-30 149q-33 78 -33 146q0 104 70.5 159.5t205.5 55.5h54l-15 -121h-49q-63 0 -96 -27.5t-33 -66.5q0 -51 37 -138q37 -86 37 -145q0 -86 -26.5 -137t-88.5 -78q55 -29 85 -87t30 -136q0 -57 -37 -144q-37 -88 -37 -139q0 -41 34 -68.5 t95 -27.5h49l15 -121h-54q-279 0 -278 227q0 61 37 148q35 86 34 143q0 63 -43 104.5t-98 41.5h-74z" />
<glyph unicode="|" horiz-adv-x="540" d="M190 0v1456l160 -12v-1456z" />
<glyph unicode="}" horiz-adv-x="555" d="M20 -88l15 123h49q63 0 96 28.5t33 67.5q0 51 -39 135q-37 87 -37 146q0 84 29 136t90 79q-57 29 -88 87t-31 138q0 55 37 141q39 86 39 140q0 41 -34 68.5t-95 27.5h-49l-15 121h54q279 0 278 -228q0 -61 -37 -145q-37 -86 -36 -146q0 -61 43 -103t98 -42h74v-104h-74 q-55 0 -95 -45t-40 -113t32 -148q33 -80 33 -145q0 -106 -70.5 -162.5t-205.5 -56.5h-54z" />
<glyph unicode="~" horiz-adv-x="833" d="M61 403q0 117 57.5 170.5t151.5 53.5q96 0 162 -45q68 -45 121 -45q35 0 59.5 20.5t26.5 65.5h133q0 -119 -58.5 -172.5t-150.5 -53.5q-84 0 -155 45q-74 43 -129 43q-80 0 -89 -82h-129z" />
<glyph unicode="&#xa1;" horiz-adv-x="346" d="M61 1327q0 45 34 78t79 33t78 -33t33 -78t-33 -79t-78 -34t-79 34t-34 79zM82 0l33 1034l118 -55l33 -979h-184z" />
<glyph unicode="&#xa2;" horiz-adv-x="937" d="M68 500q2 215 116.5 356t313.5 162v205l141 20v-231q66 -10 131.5 -32t108.5 -50l-50 -115q-82 35 -136 51.5t-140 16.5q-147 0 -233.5 -107.5t-88.5 -273.5q0 -174 82 -282.5t232 -108.5q90 0 147.5 16t128.5 53l51 -117q-43 -29 -105.5 -49t-125.5 -30v-213h-143v204 q-201 16 -315.5 158.5t-114.5 366.5z" />
<glyph unicode="&#xa3;" horiz-adv-x="921" d="M109 778h149v299q0 150 74 237t205 87q39 0 82 -11.5t69 -25.5l-37 -127q-55 23 -90 23q-139 0 -139 -175v-307h270l56 -123h-326v-280q0 -170 -64 -246h523l20 -129h-772l-14 129q143 0 143 172v354h-147z" />
<glyph unicode="&#xa4;" horiz-adv-x="1378" d="M61 -23l209 213q-86 139 -86 310q0 82 23.5 158.5t66.5 138.5l-213 215l95 114l219 -221q141 113 321 115q180 0 314 -111l215 217l92 -114l-207 -213q88 -131 88 -307q-2 -168 -90 -297l209 -218l-92 -112l-219 221q-66 -53 -150 -83t-178 -30q-176 2 -307 111 l-215 -219zM350 502q0 -166 91 -274.5t241 -108.5q98 0 178 48t126 133t46 192q0 109 -41 195.5t-117.5 136.5t-175.5 50q-98 0 -177 -49t-125 -134t-46 -189z" />
<glyph unicode="&#xa5;" horiz-adv-x="1153" d="M20 1360l152 65l391 -706l395 674h175l-488 -826l-2 -288h369l18 -125h-387v-154h-162v154h-340l-18 125h358v280z" />
<glyph unicode="&#xa6;" horiz-adv-x="540" d="M190 0v600l160 -10v-602zM190 844v612l160 -12v-613z" />
<glyph unicode="&#xa7;" horiz-adv-x="1173" d="M88 860q0 80 37 148.5t104 115.5q-20 55 -20 125q0 98 55 178t156.5 126t234.5 46q94 0 187.5 -24.5t169.5 -61.5l-56 -127q-70 35 -135 53.5t-157 18.5q-135 0 -216 -55t-81 -152q0 -74 41 -126t114.5 -96t216.5 -109q195 -88 281 -176.5t86 -231.5q0 -82 -35.5 -151.5 t-103.5 -118.5q18 -53 18 -119q0 -106 -58.5 -189.5t-170 -130.5t-262.5 -47q-90 0 -209 29t-174 65l39 127q66 -33 158.5 -58t183.5 -25q160 0 246.5 62t86.5 165q0 72 -41 125t-117.5 97t-209.5 101q-190 82 -279.5 179.5t-89.5 236.5zM246 862q0 -74 40 -126t114.5 -96 t215.5 -110q96 -43 161 -81.5t108 -81.5q61 59 61 143q0 72 -41 125t-117.5 97t-209.5 102q-184 80 -269 167q-63 -53 -63 -139z" />
<glyph unicode="&#xa8;" horiz-adv-x="579" d="M20 1358q0 39 30 68.5t71 29.5q43 0 71.5 -28.5t28.5 -69.5t-28.5 -71t-71.5 -30q-41 0 -71 30t-30 71zM360 1358q0 41 30 69.5t69 28.5q43 0 71.5 -28.5t28.5 -69.5t-28.5 -71t-71.5 -30q-41 0 -70 30t-29 71z" />
<glyph unicode="&#xa9;" horiz-adv-x="1636" d="M68 688q0 207 92 377t263 269.5t396 99.5t396 -99.5t263.5 -269.5t92.5 -377t-93.5 -377t-263.5 -268t-395 -98t-395 98t-263 268t-93 377zM201 690q0 -180 75.5 -323.5t216 -225.5t326.5 -82t327.5 82t217.5 225.5t76 323.5t-76 323.5t-217.5 225.5t-327.5 82 t-326.5 -82t-216 -225.5t-75.5 -323.5zM403 698q0 139 54.5 247t157 168.5t241.5 60.5q70 0 158 -23t143 -64l-49 -118q-76 39 -122 53t-132 14q-141 0 -214 -92t-73 -244q0 -174 66.5 -262t214.5 -88q84 0 131 15.5t121 54.5l49 -117q-57 -41 -145.5 -64.5t-155.5 -23.5 q-213 0 -329 133t-116 350z" />
<glyph unicode="&#xaa;" horiz-adv-x="677" d="M68 952q0 94 68.5 147.5t178.5 53.5h160v23q0 63 -36.5 102t-108.5 39q-39 0 -76 -7t-72 -20.5t-43 -17.5l-28 106q35 25 102.5 42.5t114.5 17.5q82 0 147.5 -34t101 -91.5t35.5 -122.5v-428h-90l-28 67q-35 -35 -86.5 -60.5t-104.5 -25.5q-104 0 -169.5 59.5 t-65.5 149.5zM201 954q0 -37 28.5 -64.5t75.5 -27.5t92 26.5t80 67.5v95h-141q-57 0 -96 -26t-39 -71z" />
<glyph unicode="&#xab;" horiz-adv-x="763" d="M61 457v92l297 285l45 -109l-217 -223l217 -223l-45 -107zM381 457v92l299 285l43 -109l-217 -223l217 -223l-43 -107z" />
<glyph unicode="&#xac;" horiz-adv-x="1052" d="M20 831h955l16 -102v-500l-145 11v462h-809z" />
<glyph unicode="&#xad;" horiz-adv-x="655" d="M61 625h517l16 -129h-514z" />
<glyph unicode="&#xae;" horiz-adv-x="1458" d="M68 997q0 184 80.5 335t231 237t351.5 86q199 0 349.5 -86t231.5 -236.5t81 -335.5q0 -182 -81 -331.5t-231.5 -235.5t-349.5 -86q-201 0 -351.5 86t-231 235.5t-80.5 331.5zM190 999q0 -156 66 -279.5t187.5 -195t287.5 -71.5q164 0 286 71.5t187.5 195.5t65.5 279 q0 158 -65.5 283t-187.5 194.5t-286 69.5q-166 0 -287.5 -69.5t-187.5 -193.5t-66 -284zM489 623v770h226q131 0 207.5 -54.5t76.5 -169.5q0 -74 -35.5 -124t-95.5 -76l193 -346h-141l-170 317q-14 -2 -58 -2h-80v-315h-123zM612 1036h62q94 0 146 26.5t52 102.5 q0 82 -46 104.5t-144 22.5h-70v-256z" />
<glyph unicode="&#xb0;" horiz-adv-x="491" d="M20 1233q0 90 67 153.5t159 63.5t158.5 -63.5t66.5 -153.5q0 -92 -65.5 -152.5t-159.5 -60.5q-92 0 -159 60.5t-67 152.5zM133 1233q0 -47 32 -81t81 -34q47 0 80.5 34t33.5 79q0 47 -33.5 79.5t-80.5 32.5q-49 0 -81 -31.5t-32 -78.5z" />
<glyph unicode="&#xb1;" horiz-adv-x="995" d="M61 735h365v359l143 -7v-352h349l16 -119h-365v-378l-143 10v368h-346zM63 121h857l14 -119h-854z" />
<glyph unicode="&#xb2;" horiz-adv-x="731" d="M47 1493q156 86 307 86q106 0 176 -39t102 -98.5t32 -122.5q0 -82 -52.5 -160t-171.5 -180l-209 -178h443l16 -113h-639v109l309 266q82 74 119 133t37 123q0 57 -43 99t-125 42q-63 0 -129.5 -23.5t-116.5 -54.5z" />
<glyph unicode="&#xb3;" horiz-adv-x="733" d="M0 655l63 101q61 -35 112.5 -51.5t127.5 -16.5q90 0 149.5 45t59.5 123q0 94 -62.5 141t-199.5 47h-37l-16 115h63q117 0 175.5 45t58.5 121q0 59 -46.5 98t-130.5 39q-72 0 -128 -21.5t-109 -56.5l-57 101q72 45 145.5 69.5t159.5 24.5q150 0 230.5 -71.5t80.5 -180.5 q0 -78 -47 -139.5t-115 -83.5q78 -16 129 -84t51 -162q0 -82 -44 -147.5t-123.5 -103.5t-186.5 -38q-139 0 -303 86z" />
<glyph unicode="&#xb4;" horiz-adv-x="329" d="M20 1237l111 289h178l-180 -320z" />
<glyph unicode="&#xb5;" horiz-adv-x="1103" d="M141 -449v1442h162v-649q0 -111 41 -172t137 -61q74 0 167 51t165 129v704h162v-993h-121l-27 141q-72 -74 -176 -123t-198 -49q-88 0 -150 31v-428z" />
<glyph unicode="&#xb6;" horiz-adv-x="1714" d="M68 967q0 219 138 322.5t374 103.5h1069v-127h-201v-1266h-162v1266h-450v-1266h-162v526h-72q-233 0 -383.5 112t-150.5 329z" />
<glyph unicode="&#xb8;" horiz-adv-x="440" d="M20 -410l39 103q25 -10 60 -20.5t63 -10.5q41 0 74 18.5t33 51.5q0 39 -52.5 67.5t-130.5 36.5l74 191h129l-49 -125q66 -12 113 -61.5t47 -104.5q0 -92 -68.5 -140.5t-169.5 -48.5q-37 0 -85 12.5t-77 30.5z" />
<glyph unicode="&#xb9;" horiz-adv-x="538" d="M20 1432l275 135h94v-879h-145v727l-164 -84z" />
<glyph unicode="&#xba;" horiz-adv-x="784" d="M68 1090q0 158 90 253t233 95q150 0 239 -93.5t89 -254.5q0 -158 -93.5 -252.5t-236.5 -94.5q-147 0 -234 92.5t-87 254.5zM215 1090q0 -109 50 -167.5t124 -58.5t126 56.5t52 169.5q0 111 -49 168t-127 57q-72 0 -124 -56.5t-52 -168.5z" />
<glyph unicode="&#xbb;" horiz-adv-x="765" d="M41 279l217 223l-217 223l47 109l297 -285v-92l-297 -285zM362 279l218 223l-218 223l46 109l297 -285v-92l-297 -285z" />
<glyph unicode="&#xbc;" horiz-adv-x="1581" d="M20 1432l275 135h94v-879h-145v727l-164 -84zM102 -274l1037 1708h159l-1032 -1708h-164zM762 -41l516 698h98v-698h164l-10 -117h-154v-178h-141v178h-459zM913 -41h322v442z" />
<glyph unicode="&#xbd;" horiz-adv-x="1624" d="M20 1432l275 135h94v-879h-145v727l-164 -84zM72 -274l1036 1708h160l-1032 -1708h-164zM938 580q162 86 307 86q106 0 176 -39t101.5 -98.5t31.5 -122.5q0 -84 -52 -161t-169 -179l-211 -179h445l16 -112h-639v108l309 267q82 74 119 133t37 123q0 57 -43 99t-127 42 q-63 0 -130 -23.5t-114 -54.5z" />
<glyph unicode="&#xbe;" horiz-adv-x="1628" d="M0 655l63 101q61 -35 112.5 -51.5t127.5 -16.5q90 0 149.5 45t59.5 123q0 94 -62.5 141t-199.5 47h-37l-16 115h63q104 0 169 42t65 124q0 57 -46.5 97t-130.5 40q-72 0 -128 -21.5t-109 -56.5l-57 101q72 45 145.5 69.5t159.5 24.5q150 0 230.5 -71.5t80.5 -180.5 q0 -78 -47 -139.5t-115 -83.5q78 -16 129 -84t51 -162q0 -82 -44 -147.5t-123.5 -103.5t-186.5 -38q-139 0 -303 86zM229 -274l1037 1708h159l-1032 -1708h-164zM809 -41l514 698h98v-698h166l-12 -117h-154v-178h-141v178h-459zM958 -41h322v442z" />
<glyph unicode="&#xbf;" horiz-adv-x="843" d="M61 199q0 117 100.5 233.5t264.5 192.5l18 366l119 -49l17 -401q-162 -51 -259.5 -141.5t-97.5 -196.5t59.5 -156.5t176.5 -50.5q92 0 172 30.5t172 96.5l20 -146q-94 -61 -177 -90.5t-193 -29.5q-197 0 -294.5 92t-97.5 250zM397 1184q0 45 34 78.5t79 33.5t78 -33.5 t33 -78.5q0 -47 -33 -80t-78 -33t-79 34t-34 79z" />
<glyph unicode="&#xc0;" d="M20 0l517 1393h155l535 -1381l-160 -26l-156 409h-587l-146 -395h-158zM369 526h495l-252 654zM426 1833h178l111 -289l-109 -31z" />
<glyph unicode="&#xc1;" d="M20 0l517 1393h155l535 -1381l-160 -26l-156 409h-587l-146 -395h-158zM369 526h495l-252 654zM500 1544l110 289h178l-180 -320z" />
<glyph unicode="&#xc2;" d="M20 0l517 1393h155l535 -1381l-160 -26l-156 409h-587l-146 -395h-158zM305 1534l234 299h129l237 -299l-147 -21l-154 201l-153 -201zM369 526h495l-252 654z" />
<glyph unicode="&#xc3;" d="M20 0l517 1393h155l535 -1381l-160 -26l-156 409h-587l-146 -395h-158zM301 1554q0 201 182 201q86 0 131 -43q48 -47 101 -47q29 0 49 21.5t22 60.5h113q0 -106 -50 -153.5t-134 -47.5q-74 0 -121 45q-53 47 -105 47q-29 0 -51 -22.5t-24 -61.5h-113zM369 526h495 l-252 654z" />
<glyph unicode="&#xc4;" d="M20 0h158l146 395h587l156 -409l160 26l-535 1381h-155zM369 526l243 654l252 -654h-495zM498 1665q0 41 29.5 69.5t68.5 28.5h10h8q43 0 72 -28.5t29 -69.5t-29 -70.5t-72 -29.5h-8h-10q-41 0 -69.5 29.5t-28.5 70.5z" />
<glyph unicode="&#xc5;" d="M20 0l517 1393h155l535 -1381l-160 -26l-156 409h-587l-146 -395h-158zM369 526h495l-252 654zM420 1698q0 78 56 130t136 52q78 0 133.5 -52t55.5 -130q0 -74 -55.5 -124t-133.5 -50q-80 0 -136 50t-56 124zM524 1698q0 -35 25.5 -59.5t62.5 -24.5q35 0 60.5 24.5 t25.5 59.5q0 39 -24.5 63.5t-61.5 24.5t-62.5 -24.5t-25.5 -63.5z" />
<glyph unicode="&#xc6;" horiz-adv-x="1792" d="M20 10l871 1383h784l19 -121h-619v-500h481l19 -121h-500v-522h660l16 -129h-840v395h-489l-250 -411zM506 526h405v645z" />
<glyph unicode="&#xc7;" horiz-adv-x="1140" d="M88 688q0 207 80 374t229.5 263t345.5 96q76 0 182.5 -21.5t166.5 -58.5l-52 -116q-82 31 -141 44t-156 13q-135 0 -246.5 -76t-175 -211t-63.5 -305q0 -160 55.5 -292t162 -208.5t249.5 -76.5q98 0 171 16t136 45l62 -123q-53 -29 -140.5 -50t-171.5 -28l-28 -71 q66 -12 112.5 -61.5t46.5 -104.5q0 -92 -68.5 -140.5t-168.5 -48.5q-37 0 -85 12.5t-77 30.5l39 103q25 -10 59.5 -20.5t63.5 -10.5q41 0 73.5 18.5t32.5 51.5q0 39 -52 67.5t-130 36.5l53 139q-180 18 -308 118t-192.5 255.5t-64.5 339.5z" />
<glyph unicode="&#xc8;" horiz-adv-x="1071" d="M190 0v1393h822l18 -121h-678v-500h482l18 -121h-500v-522h658l20 -129h-840zM399 1833h179l110 -289l-108 -31z" />
<glyph unicode="&#xc9;" horiz-adv-x="1071" d="M190 0v1393h822l18 -121h-678v-500h482l18 -121h-500v-522h658l20 -129h-840zM475 1544l111 289h178l-180 -320z" />
<glyph unicode="&#xca;" horiz-adv-x="1071" d="M190 0v1393h822l18 -121h-678v-500h482l18 -121h-500v-522h658l20 -129h-840zM279 1534l233 299h129l238 -299l-148 -21l-153 201l-154 -201z" />
<glyph unicode="&#xcb;" horiz-adv-x="1071" d="M190 0h840l-20 129h-658v522h500l-18 121h-482v500h678l-18 121h-822v-1393zM471 1665q0 41 29.5 69.5t68.5 28.5h11h8q43 0 71.5 -28.5t28.5 -69.5t-28.5 -70.5t-71.5 -29.5h-8h-11q-41 0 -69.5 29.5t-28.5 70.5z" />
<glyph unicode="&#xcc;" horiz-adv-x="540" d="M86 1833h178l111 -289l-109 -31zM190 0v1393h162v-1393h-162z" />
<glyph unicode="&#xcd;" horiz-adv-x="540" d="M162 1544l110 289h179l-181 -320zM190 0v1393h162v-1393h-162z" />
<glyph unicode="&#xce;" horiz-adv-x="540" d="M-35 1534l234 299h129l237 -299l-147 -21l-154 201l-153 -201zM190 0v1393h162v-1393h-162z" />
<glyph unicode="&#xcf;" horiz-adv-x="540" d="M158 1665q0 41 29.5 69.5t68.5 28.5h10h8q43 0 72 -28.5t29 -69.5t-29 -70.5t-72 -29.5h-8h-10q-41 0 -69.5 29.5t-28.5 70.5zM190 0h162v1393h-162v-1393z" />
<glyph unicode="&#xd0;" horiz-adv-x="1374" d="M41 752h149v641h488q307 0 458.5 -190.5t151.5 -497.5q0 -203 -71.5 -362t-212 -251t-338.5 -92h-476v625h-131zM352 135h316q137 0 240.5 68.5t160.5 196.5t57 302q0 250 -111.5 401.5t-328.5 151.5h-334v-503h207l19 -127h-226v-490z" />
<glyph unicode="&#xd1;" horiz-adv-x="1433" d="M190 0v1393h129l678 -942l84 -138v1080h164v-1393h-131l-708 1001l-54 93v-1094h-162zM410 1554q0 201 182 201q86 0 131 -43q47 -47 100 -47q29 0 49.5 21.5t22.5 60.5h113q0 -106 -50.5 -153.5t-134.5 -47.5q-74 0 -121 45q-53 47 -104 47q-29 0 -51.5 -22.5 t-24.5 -61.5h-112z" />
<glyph unicode="&#xd2;" horiz-adv-x="1484" d="M88 690q0 207 85 373t234.5 262t337.5 100q186 0 336 -92t234 -256t84 -370q0 -207 -85 -374t-236.5 -263.5t-340.5 -98.5q-186 0 -333.5 92.5t-231.5 256t-84 370.5zM258 692q0 -166 61.5 -298t169 -206.5t244.5 -74.5q141 0 253 75.5t175.5 211t63.5 305.5 q0 166 -61.5 298t-169 206.5t-244.5 74.5q-141 0 -253 -77t-175.5 -211t-63.5 -304zM557 1833h178l111 -289l-109 -31z" />
<glyph unicode="&#xd3;" horiz-adv-x="1484" d="M88 690q0 207 85 373t234.5 262t337.5 100q186 0 336 -92t234 -256t84 -370q0 -207 -85 -374t-236.5 -263.5t-340.5 -98.5q-186 0 -333.5 92.5t-231.5 256t-84 370.5zM258 692q0 -166 61.5 -298t169 -206.5t244.5 -74.5q141 0 253 75.5t175.5 211t63.5 305.5 q0 166 -61.5 298t-169 206.5t-244.5 74.5q-141 0 -253 -77t-175.5 -211t-63.5 -304zM633 1544l110 289h179l-181 -320z" />
<glyph unicode="&#xd4;" horiz-adv-x="1484" d="M88 690q0 207 85 373t234.5 262t337.5 100q186 0 336 -92t234 -256t84 -370q0 -207 -85 -374t-236.5 -263.5t-340.5 -98.5q-186 0 -333.5 92.5t-231.5 256t-84 370.5zM258 692q0 -166 61.5 -298t169 -206.5t244.5 -74.5q141 0 253 75.5t175.5 211t63.5 305.5 q0 166 -61.5 298t-169 206.5t-244.5 74.5q-141 0 -253 -77t-175.5 -211t-63.5 -304zM436 1534l234 299h129l237 -299l-147 -21l-154 201l-153 -201z" />
<glyph unicode="&#xd5;" horiz-adv-x="1484" d="M88 690q0 207 85 373t234.5 262t337.5 100q186 0 336 -92t234 -256t84 -370q0 -207 -85 -374t-236.5 -263.5t-340.5 -98.5q-186 0 -333.5 92.5t-231.5 256t-84 370.5zM258 692q0 -166 61.5 -298t169 -206.5t244.5 -74.5q141 0 253 75.5t175.5 211t63.5 305.5 q0 166 -61.5 298t-169 206.5t-244.5 74.5q-141 0 -253 -77t-175.5 -211t-63.5 -304zM434 1554q0 201 182 201q86 0 132 -43q47 -47 100 -47q29 0 49.5 21.5t22.5 60.5h112q0 -106 -50 -153.5t-134 -47.5q-74 0 -121 45q-53 47 -104 47q-29 0 -51.5 -22.5t-24.5 -61.5h-113z " />
<glyph unicode="&#xd6;" horiz-adv-x="1484" d="M88 690q0 -207 84 -370.5t231.5 -256t333.5 -92.5q188 2 340 98.5t237 263.5t85 374t-84 370.5t-233.5 255.5t-336.5 92q-188 -4 -337.5 -100t-234.5 -262t-85 -373zM258 692q0 170 63.5 304t175.5 211t253 77q137 0 244.5 -74.5t169 -207t61.5 -297.5 q0 -170 -63.5 -305.5t-175.5 -211t-253 -75.5q-137 0 -244.5 74.5t-169 206.5t-61.5 298zM629 1665q0 41 29.5 69.5t68.5 28.5h10h8q43 0 72 -28.5t29 -69.5t-29 -70.5t-72 -29.5h-8h-10q-41 0 -69.5 29.5t-28.5 70.5z" />
<glyph unicode="&#xd7;" horiz-adv-x="1040" d="M61 63l381 451l-348 447h166l262 -334l293 334h164l-381 -451l348 -447h-164l-262 334l-293 -334h-166z" />
<glyph unicode="&#xd8;" horiz-adv-x="1484" d="M88 690q0 207 85 373t234.5 262t337.5 100q186 0 336 -92t234 -255.5t84 -370.5t-85 -374t-236.5 -263.5t-340.5 -98.5q-186 0 -333.5 92.5t-231.5 256t-84 370.5zM258 692q0 -154 52.5 -279.5t146.5 -201.5l450 1044q-74 29 -157 29q-141 0 -253 -77t-175.5 -211 t-63.5 -304zM586 137q68 -25 147 -24q141 0 253 75.5t175.5 211t63.5 305.5q0 147 -49.5 270t-137.5 201z" />
<glyph unicode="&#xd9;" horiz-adv-x="1396" d="M170 494v899h162v-881q0 -178 100 -288.5t266 -110.5q168 0 266.5 110.5t98.5 288.5v881h164v-899q0 -147 -64.5 -266t-184.5 -186t-280 -67t-279.5 68t-184 184.5t-64.5 266.5zM510 1833h178l111 -289l-109 -31z" />
<glyph unicode="&#xda;" horiz-adv-x="1396" d="M170 494v899h162v-881q0 -178 100 -288.5t266 -110.5q168 0 266.5 110.5t98.5 288.5v881h164v-899q0 -147 -64.5 -266t-184.5 -186t-280 -67t-279.5 68t-184 184.5t-64.5 266.5zM586 1544l110 289h178l-180 -320z" />
<glyph unicode="&#xdb;" horiz-adv-x="1396" d="M170 494v899h162v-881q0 -178 100 -288.5t266 -110.5q168 0 266.5 110.5t98.5 288.5v881h164v-899q0 -147 -64.5 -266t-184.5 -186t-280 -67t-279.5 68t-184 184.5t-64.5 266.5zM389 1534l234 299h129l237 -299l-147 -21l-154 201l-153 -201z" />
<glyph unicode="&#xdc;" horiz-adv-x="1396" d="M170 494q0 -150 64.5 -266.5t184.5 -184.5t279 -68q160 0 280 67t184.5 185.5t64.5 266.5v899h-164v-881q0 -178 -98.5 -288.5t-266.5 -110.5q-166 0 -266 110.5t-100 288.5v881h-162v-899zM582 1665q0 41 29.5 69.5t68.5 28.5h10h8q43 0 72 -28.5t29 -69.5t-29 -70.5 t-72 -29.5h-8h-10q-41 0 -69.5 29.5t-28.5 70.5z" />
<glyph unicode="&#xdd;" horiz-adv-x="1153" d="M20 1360l152 65l391 -706l395 674h175l-488 -826l-2 -567h-162v559zM451 1544l110 289h178l-180 -320z" />
<glyph unicode="&#xde;" horiz-adv-x="1150" d="M190 0v1393h162v-164h217q236 0 375 -103.5t139 -322.5q-2 -217 -151.5 -329t-382.5 -112h-197v-362h-162zM352 500h203q162 0 260.5 72.5t102.5 224.5q0 162 -88.5 228.5t-258.5 66.5h-219v-592z" />
<glyph unicode="&#xdf;" horiz-adv-x="1177" d="M150 -471v1440q0 205 121.5 320.5t324.5 115.5q184 0 305 -96.5t121 -276.5q0 -100 -45 -177t-127 -118q113 -43 181.5 -132t68.5 -216q0 -201 -140.5 -295t-375.5 -94h-127v135h125q160 0 256 59.5t96 192.5q0 135 -89 201.5t-243 66.5h-119v131h60q162 0 237.5 60.5 t75.5 179.5q0 117 -73.5 178.5t-186.5 61.5q-135 0 -210 -81t-75 -216v-1440h-161z" />
<glyph unicode="&#xe0;" horiz-adv-x="999" d="M102 283q0 143 98.5 223t260.5 80h256v55q0 111 -52 174.5t-165 63.5q-88 0 -150.5 -17.5t-136.5 -50.5l-47 123q53 37 156.5 61.5t171.5 24.5q113 0 200.5 -43t137 -119t49.5 -172v-686h-121l-21 100q-55 -51 -137 -89t-160 -38q-166 0 -253 86t-87 224zM252 283 q0 -72 47 -125.5t139 -53.5q80 0 153 41t128 107v225h-262q-96 0 -150.5 -56t-54.5 -138zM313 1526h179l110 -289l-108 -31z" />
<glyph unicode="&#xe1;" horiz-adv-x="999" d="M102 283q0 143 98.5 223t260.5 80h256v55q0 111 -52 174.5t-165 63.5q-88 0 -150.5 -17.5t-136.5 -50.5l-47 123q53 37 156.5 61.5t171.5 24.5q113 0 200.5 -43t137 -119t49.5 -172v-686h-121l-21 100q-55 -51 -137 -89t-160 -38q-166 0 -253 86t-87 224zM252 283 q0 -72 47 -125.5t139 -53.5q80 0 153 41t128 107v225h-262q-96 0 -150.5 -56t-54.5 -138zM387 1237l111 289h178l-180 -320z" />
<glyph unicode="&#xe2;" horiz-adv-x="999" d="M102 283q0 143 98.5 223t260.5 80h256v55q0 111 -52 174.5t-165 63.5q-88 0 -150.5 -17.5t-136.5 -50.5l-47 123q53 37 156.5 61.5t171.5 24.5q113 0 200.5 -43t137 -119t49.5 -172v-686h-121l-21 100q-55 -51 -137 -89t-160 -38q-166 0 -253 86t-87 224zM196 1227 l234 299h129l238 -299l-148 -21l-154 201l-153 -201zM252 283q0 -72 47 -125.5t139 -53.5q80 0 153 41t128 107v225h-262q-96 0 -150.5 -56t-54.5 -138z" />
<glyph unicode="&#xe3;" horiz-adv-x="999" d="M102 283q0 143 98.5 223t260.5 80h256v55q0 111 -52 174.5t-165 63.5q-88 0 -150.5 -17.5t-136.5 -50.5l-47 123q53 37 156.5 61.5t171.5 24.5q113 0 200.5 -43t137 -119t49.5 -172v-686h-121l-21 100q-55 -51 -137 -89t-160 -38q-166 0 -253 86t-87 224zM188 1247 q0 201 183 201q86 0 131 -43q47 -47 100 -47q29 0 49.5 21.5t22.5 60.5h112q0 -106 -50 -153.5t-134 -47.5q-74 0 -121 45q-53 47 -104 47q-29 0 -51.5 -22.5t-24.5 -61.5h-113zM252 283q0 -72 47 -125.5t139 -53.5q80 0 153 41t128 107v225h-262q-96 0 -150.5 -56 t-54.5 -138z" />
<glyph unicode="&#xe4;" horiz-adv-x="999" d="M102 283q0 143 98.5 223t260.5 80h256v55q0 111 -52 174.5t-165 63.5q-88 0 -150.5 -17.5t-136.5 -50.5l-47 123q53 37 156.5 61.5t171.5 24.5q113 0 200.5 -43t137 -119t49.5 -172v-686h-121l-21 100q-55 -51 -137 -89t-160 -38q-166 0 -253 86t-87 224zM215 1358 q0 39 30 68.5t71 29.5q43 0 71.5 -28.5t28.5 -69.5t-28.5 -71t-71.5 -30q-41 0 -71 30t-30 71zM252 283q0 -72 47 -125.5t139 -53.5q80 0 153 41t128 107v225h-262q-96 0 -150.5 -56t-54.5 -138zM555 1358q0 41 30 69.5t69 28.5q43 0 71.5 -28.5t28.5 -69.5t-28.5 -71 t-71.5 -30q-41 0 -70 30t-29 71z" />
<glyph unicode="&#xe5;" horiz-adv-x="999" d="M102 283q0 143 98.5 223t260.5 80h256v55q0 111 -52 174.5t-165 63.5q-88 0 -150.5 -17.5t-136.5 -50.5l-47 123q53 37 156.5 61.5t171.5 24.5q113 0 200.5 -43t137 -119t49.5 -172v-686h-121l-21 100q-55 -51 -137 -89t-160 -38q-166 0 -253 86t-87 224zM252 283 q0 -72 47 -125.5t139 -53.5q80 0 153 41t128 107v225h-262q-96 0 -150.5 -56t-54.5 -138zM309 1391q0 78 56.5 130t136.5 52q78 0 133 -52.5t55 -129.5q0 -74 -55 -124t-133 -50q-80 0 -136.5 50t-56.5 124zM414 1391q0 -35 25.5 -59.5t62.5 -24.5q35 0 60.5 24.5t25.5 59.5 q0 39 -24.5 63.5t-61.5 24.5t-62.5 -24.5t-25.5 -63.5z" />
<glyph unicode="&#xe6;" horiz-adv-x="1669" d="M102 283q0 143 98.5 223t260.5 80h256v53q0 111 -52.5 175.5t-164.5 64.5q-88 0 -150.5 -17.5t-136.5 -50.5l-47 123q53 37 156.5 61.5t171.5 24.5q111 0 196.5 -42t136.5 -114q59 76 148.5 117t202.5 41q217 0 320.5 -151.5t103.5 -397.5h-721q6 -168 91 -266t261 -98 q80 0 146.5 21.5t158.5 66.5l51 -119q-84 -47 -168 -75t-186 -28q-283 0 -418 179q-72 -78 -160 -129.5t-215 -51.5q-166 0 -253 86t-87 224zM252 283q0 -72 47 -125.5t139 -53.5q119 0 188 44t128 122q-35 90 -39 207h-258q-96 0 -150.5 -56t-54.5 -138zM885 584h557 q-35 301 -271 301q-127 0 -199.5 -81t-86.5 -220z" />
<glyph unicode="&#xe7;" horiz-adv-x="937" d="M68 500q0 152 60 269.5t171 184t258 66.5q68 0 165 -25.5t157 -64.5l-50 -115q-82 35 -136 51.5t-140 16.5q-147 0 -233.5 -107.5t-88.5 -273.5q0 -174 82 -282.5t232 -108.5q90 0 147.5 16t128.5 53l51 -117q-49 -33 -125.5 -55.5t-148.5 -30.5l-29 -75 q66 -12 113 -61.5t47 -104.5q0 -92 -68.5 -140.5t-168.5 -48.5q-37 0 -85.5 12.5t-76.5 30.5l39 103q25 -10 59.5 -20.5t63.5 -10.5q41 0 73.5 18.5t32.5 51.5q0 39 -52 67.5t-130 36.5l55 141q-188 27 -295.5 167.5t-107.5 355.5z" />
<glyph unicode="&#xe8;" horiz-adv-x="1021" d="M68 500q0 152 54 269.5t159.5 184t248.5 66.5q217 0 320.5 -151.5t103.5 -397.5h-721q6 -168 91.5 -265t261.5 -97q80 0 146.5 20.5t158.5 65.5l51 -119q-84 -47 -168 -75t-186 -28q-254 0 -387 143.5t-133 383.5zM238 582h557q-35 301 -271 301q-127 0 -199.5 -81 t-86.5 -220zM342 1526h179l110 -289l-108 -31z" />
<glyph unicode="&#xe9;" horiz-adv-x="1021" d="M68 500q0 152 54 269.5t159.5 184t248.5 66.5q217 0 320.5 -151.5t103.5 -397.5h-721q6 -168 91.5 -265t261.5 -97q80 0 146.5 20.5t158.5 65.5l51 -119q-84 -47 -168 -75t-186 -28q-254 0 -387 143.5t-133 383.5zM238 582h557q-35 301 -271 301q-127 0 -199.5 -81 t-86.5 -220zM413 1237l111 289h178l-180 -320z" />
<glyph unicode="&#xea;" horiz-adv-x="1021" d="M68 500q0 152 54 269.5t159.5 184t248.5 66.5q217 0 320.5 -151.5t103.5 -397.5h-721q6 -168 91.5 -265t261.5 -97q80 0 146.5 20.5t158.5 65.5l51 -119q-84 -47 -168 -75t-186 -28q-254 0 -387 143.5t-133 383.5zM223 1227l234 299h129l238 -299l-148 -21l-154 201 l-153 -201zM238 582h557q-35 301 -271 301q-127 0 -199.5 -81t-86.5 -220z" />
<glyph unicode="&#xeb;" horiz-adv-x="1021" d="M68 500q0 152 54 269.5t159.5 184t248.5 66.5q217 0 320.5 -151.5t103.5 -397.5h-721q6 -168 91.5 -265t261.5 -97q80 0 146.5 20.5t158.5 65.5l51 -119q-84 -47 -168 -75t-186 -28q-254 0 -387 143.5t-133 383.5zM238 582h557q-35 301 -271 301q-127 0 -199.5 -81 t-86.5 -220zM243 1358q0 39 30 68.5t71 29.5q43 0 71.5 -28.5t28.5 -69.5t-28.5 -71t-71.5 -30q-41 0 -71 30t-30 71zM583 1358q0 41 30 69.5t69 28.5q43 0 71.5 -28.5t28.5 -69.5t-28.5 -71t-71.5 -30q-41 0 -70 30t-29 71z" />
<glyph unicode="&#xec;" horiz-adv-x="419" d="M24 1526h179l110 -289l-108 -31zM129 0v993h164v-993h-164z" />
<glyph unicode="&#xed;" horiz-adv-x="419" d="M98 1237l111 289h178l-180 -320zM129 0v993h164v-993h-164z" />
<glyph unicode="&#xee;" horiz-adv-x="419" d="M-89 1227l234 299h129l238 -299l-148 -21l-154 201l-153 -201zM129 0v993h164v-993h-164z" />
<glyph unicode="&#xef;" horiz-adv-x="419" d="M-68 1358q0 39 30 68.5t71 29.5q43 0 71.5 -28.5t28.5 -69.5t-28.5 -71t-71.5 -30q-41 0 -71 30t-30 71zM129 0v993h164v-993h-164zM272 1358q0 41 30 69.5t69 28.5q43 0 71.5 -28.5t28.5 -69.5t-28.5 -71t-71.5 -30q-41 0 -70 30t-29 71z" />
<glyph unicode="&#xf0;" horiz-adv-x="1097" d="M68 500q2 152 60 269.5t169 184t258 66.5q109 0 209 -55q-92 172 -277 301l-254 -129l-61 106l195 96q-72 39 -179 82l48 115q158 -57 274 -127l223 111l60 -101l-168 -86q207 -152 307 -362.5t100 -466.5q0 -154 -58.5 -273.5t-170 -188.5t-266.5 -69q-143 0 -250 66.5 t-163 186.5t-56 274zM231 502q0 -174 82 -282.5t232 -108.5q147 0 233 107.5t88 273.5q0 152 -28 274q-113 117 -285 117q-147 0 -233.5 -107.5t-88.5 -273.5z" />
<glyph unicode="&#xf1;" horiz-adv-x="1083" d="M129 0v993h121l26 -141q72 74 176.5 123t198.5 49q158 0 235 -95t77 -255v-672h-162v649q0 111 -41 172.5t-137 61.5q-74 0 -167.5 -51.5t-164.5 -128.5v-705h-162zM251 1247q0 201 183 201q86 0 131 -43q47 -47 100 -47q29 0 49.5 21.5t22.5 60.5h112q0 -106 -50 -153.5 t-134 -47.5q-74 0 -121 45q-53 47 -104 47q-29 0 -51.5 -22.5t-24.5 -61.5h-113z" />
<glyph unicode="&#xf2;" horiz-adv-x="1097" d="M68 500q2 152 60 269.5t169 184t258 66.5q223 0 350 -142.5t127 -383.5q0 -152 -60.5 -270t-172.5 -184.5t-262 -66.5q-143 0 -250 66.5t-163 186.5t-56 274zM231 502q0 -174 82 -282.5t232 -108.5q147 0 233 107.5t88 273.5q0 176 -82 283.5t-231 107.5 q-147 0 -233.5 -107.5t-88.5 -273.5zM364 1526h179l110 -289l-108 -31z" />
<glyph unicode="&#xf3;" horiz-adv-x="1097" d="M68 500q2 152 60 269.5t169 184t258 66.5q223 0 350 -142.5t127 -383.5q0 -152 -60.5 -270t-172.5 -184.5t-262 -66.5q-143 0 -250 66.5t-163 186.5t-56 274zM231 502q0 -174 82 -282.5t232 -108.5q147 0 233 107.5t88 273.5q0 176 -82 283.5t-231 107.5 q-147 0 -233.5 -107.5t-88.5 -273.5zM438 1237l111 289h178l-180 -320z" />
<glyph unicode="&#xf4;" horiz-adv-x="1097" d="M68 500q2 152 60 269.5t169 184t258 66.5q223 0 350 -142.5t127 -383.5q0 -152 -60.5 -270t-172.5 -184.5t-262 -66.5q-143 0 -250 66.5t-163 186.5t-56 274zM231 502q0 -174 82 -282.5t232 -108.5q147 0 233 107.5t88 273.5q0 176 -82 283.5t-231 107.5 q-147 0 -233.5 -107.5t-88.5 -273.5zM247 1227l234 299h129l238 -299l-148 -21l-154 201l-153 -201z" />
<glyph unicode="&#xf5;" horiz-adv-x="1097" d="M68 500q2 152 60 269.5t169 184t258 66.5q223 0 350 -142.5t127 -383.5q0 -152 -60.5 -270t-172.5 -184.5t-262 -66.5q-143 0 -250 66.5t-163 186.5t-56 274zM231 502q0 -174 82 -282.5t232 -108.5q147 0 233 107.5t88 273.5q0 176 -82 283.5t-231 107.5 q-147 0 -233.5 -107.5t-88.5 -273.5zM239 1247q0 201 183 201q86 0 131 -43q47 -47 100 -47q29 0 49.5 21.5t22.5 60.5h112q0 -106 -50 -153.5t-134 -47.5q-74 0 -121 45q-53 47 -104 47q-29 0 -51.5 -22.5t-24.5 -61.5h-113z" />
<glyph unicode="&#xf6;" horiz-adv-x="1097" d="M68 500q2 152 60 269.5t169 184t258 66.5q223 0 350 -142.5t127 -383.5q0 -152 -60.5 -270t-172.5 -184.5t-262 -66.5q-143 0 -250 66.5t-163 186.5t-56 274zM231 502q0 -174 82 -282.5t232 -108.5q147 0 233 107.5t88 273.5q0 176 -82 283.5t-231 107.5 q-147 0 -233.5 -107.5t-88.5 -273.5zM266 1358q0 39 30 68.5t71 29.5q43 0 71.5 -28.5t28.5 -69.5t-28.5 -71t-71.5 -30q-41 0 -71 30t-30 71zM606 1358q0 41 30 69.5t69 28.5q43 0 71.5 -28.5t28.5 -69.5t-28.5 -71t-71.5 -30q-41 0 -70 30t-29 71z" />
<glyph unicode="&#xf7;" horiz-adv-x="1024" d="M61 625h885l17 -129h-883zM385 862q0 53 37 90t90 37q51 0 87 -37t36 -90q0 -49 -36 -87t-87 -38q-53 0 -90 38t-37 87zM389 227q0 53 37 89t88 36q53 0 90 -37t37 -88t-37 -89t-90 -38q-51 0 -88 37t-37 90z" />
<glyph unicode="&#xf8;" horiz-adv-x="1112" d="M68 500q2 152 60 269.5t169 184t258 66.5q223 0 350 -142t127 -384q0 -152 -60.5 -270t-173 -184.5t-261.5 -66.5q-143 0 -250 66.5t-163 186.5t-56 274zM231 502q0 -195 101 -305l346 661q-55 25 -125 25q-147 0 -233.5 -107.5t-88.5 -273.5zM453 123q43 -12 92 -12 q147 0 233 107.5t88 273.5q0 174 -75 276z" />
<glyph unicode="&#xf9;" horiz-adv-x="1083" d="M121 322v671h162v-649q0 -111 41 -172t137 -61q74 0 167 51t165 129v704h161v-995h-120l-27 143q-72 -74 -176.5 -123t-198.5 -49q-158 0 -234.5 95.5t-76.5 255.5zM344 1526h179l110 -289l-108 -31z" />
<glyph unicode="&#xfa;" horiz-adv-x="1083" d="M121 322v671h162v-649q0 -111 41 -172t137 -61q74 0 167 51t165 129v704h161v-995h-120l-27 143q-72 -74 -176.5 -123t-198.5 -49q-158 0 -234.5 95.5t-76.5 255.5zM417 1237l111 289h178l-180 -320z" />
<glyph unicode="&#xfb;" horiz-adv-x="1083" d="M121 322v671h162v-649q0 -111 41 -172t137 -61q74 0 167 51t165 129v704h161v-995h-120l-27 143q-72 -74 -176.5 -123t-198.5 -49q-158 0 -234.5 95.5t-76.5 255.5zM227 1227l234 299h129l238 -299l-148 -21l-154 201l-153 -201z" />
<glyph unicode="&#xfc;" horiz-adv-x="1083" d="M121 322v671h162v-649q0 -111 41 -172t137 -61q74 0 167 51t165 129v704h161v-995h-120l-27 143q-72 -74 -176.5 -123t-198.5 -49q-158 0 -234.5 95.5t-76.5 255.5zM245 1358q0 39 30 68.5t71 29.5q43 0 71.5 -28.5t28.5 -69.5t-28.5 -71t-71.5 -30q-41 0 -71 30t-30 71z M585 1358q0 41 30 69.5t69 28.5q43 0 71.5 -28.5t28.5 -69.5t-28.5 -71t-71.5 -30q-41 0 -70 30t-29 71z" />
<glyph unicode="&#xfd;" horiz-adv-x="933" d="M20 965l148 61l297 -807l285 774h163l-368 -989v-475h-164v481zM344 1237l111 289h178l-180 -320z" />
<glyph unicode="&#xfe;" horiz-adv-x="1075" d="M141 -449v1874l162 21v-504q55 37 115.5 57.5t116.5 20.5q221 0 347 -144t126 -382q0 -152 -58.5 -270t-166 -184.5t-253.5 -66.5q-109 0 -227 78v-477zM303 197q49 -41 104.5 -63.5t127.5 -22.5q147 0 227 106.5t82 274.5q0 176 -79 283.5t-228 107.5 q-74 0 -129.5 -23.5t-104.5 -71.5v-591z" />
<glyph unicode="&#xff;" horiz-adv-x="933" d="M20 965l148 61l297 -807l285 774h163l-368 -989v-475h-164v481zM174 1358q0 39 30 68.5t71 29.5q43 0 71.5 -28.5t28.5 -69.5t-28.5 -71t-71.5 -30q-41 0 -71 30t-30 71zM514 1358q0 41 30 69.5t69 28.5q43 0 71.5 -28.5t28.5 -69.5t-28.5 -71t-71.5 -30q-41 0 -70 30 t-29 71z" />
<glyph unicode="&#x152;" horiz-adv-x="1908" d="M88 688q0 207 80 374t229.5 263t345.5 96q55 0 137.5 -13t147.5 -36v21h760l18 -121h-616v-500h481l19 -121h-500v-522h657l21 -129h-840v23q-66 -23 -147.5 -37.5t-149.5 -14.5q-205 0 -350 96.5t-219 260.5t-74 360zM258 690q0 -160 55.5 -292t162 -208.5t249.5 -76.5 q96 0 166.5 15t136.5 44v1057q-74 29 -133 41t-152 12q-135 0 -246.5 -76t-175 -211t-63.5 -305z" />
<glyph unicode="&#x153;" horiz-adv-x="1626" d="M68 500q0 152 60 269.5t171 184t258 66.5q63 0 154.5 -22.5t152.5 -59.5q111 82 271 82q217 0 320.5 -151.5t103.5 -397.5h-721q6 -168 91 -265t261 -97q80 0 146.5 20.5t158.5 65.5l51 -119q-84 -47 -168 -75t-186 -28q-199 0 -324 88q-61 -37 -158.5 -62.5 t-162.5 -25.5q-147 0 -256 66.5t-166 186.5t-57 274zM231 502q0 -174 82 -282.5t232 -108.5q74 0 125 11t100 34q-98 135 -98 344q0 205 96 342q-104 41 -215 41q-147 0 -233.5 -107.5t-88.5 -273.5zM842 582h557q-35 301 -271 301q-127 0 -199.5 -81t-86.5 -220z" />
<glyph unicode="&#x178;" horiz-adv-x="1153" d="M20 1360l461 -801v-559h162l2 567l488 826h-175l-395 -674l-391 706zM446 1665q0 41 30 69.5t69 28.5h10h8q43 0 72 -28.5t29 -69.5t-29 -70.5t-72 -29.5h-8h-10q-41 0 -70 29.5t-29 70.5z" />
<glyph unicode="&#x2c6;" horiz-adv-x="641" d="M20 1227l234 299h129l238 -299l-148 -21l-154 201l-153 -201z" />
<glyph unicode="&#x2dc;" horiz-adv-x="643" d="M20 1247q0 201 183 201q86 0 131 -43q47 -47 100 -47q29 0 49.5 21.5t22.5 60.5h112q0 -106 -50 -153.5t-134 -47.5q-74 0 -121 45q-53 47 -104 47q-29 0 -51.5 -22.5t-24.5 -61.5h-113z" />
<glyph unicode="&#x2000;" horiz-adv-x="940" />
<glyph unicode="&#x2001;" horiz-adv-x="1880" />
<glyph unicode="&#x2002;" horiz-adv-x="940" />
<glyph unicode="&#x2003;" horiz-adv-x="1880" />
<glyph unicode="&#x2004;" horiz-adv-x="626" />
<glyph unicode="&#x2005;" horiz-adv-x="470" />
<glyph unicode="&#x2006;" horiz-adv-x="313" />
<glyph unicode="&#x2007;" horiz-adv-x="313" />
<glyph unicode="&#x2008;" horiz-adv-x="235" />
<glyph unicode="&#x2009;" horiz-adv-x="376" />
<glyph unicode="&#x200a;" horiz-adv-x="104" />
<glyph unicode="&#x2010;" horiz-adv-x="655" d="M61 625h517l16 -129h-514z" />
<glyph unicode="&#x2011;" horiz-adv-x="655" d="M61 625h517l16 -129h-514z" />
<glyph unicode="&#x2012;" horiz-adv-x="655" d="M61 625h517l16 -129h-514z" />
<glyph unicode="&#x2013;" horiz-adv-x="901" d="M61 625h760l19 -129h-760z" />
<glyph unicode="&#x2014;" horiz-adv-x="1101" d="M61 625h963l16 -129h-960z" />
<glyph unicode="&#x2018;" horiz-adv-x="354" d="M61 1120q0 98 60.5 195.5t146.5 142.5l45 -78q-57 -41 -87.5 -77.5t-37.5 -90.5q39 -2 67 -34.5t28 -75.5t-33 -77t-78 -34q-47 0 -79 36t-32 93z" />
<glyph unicode="&#x2019;" horiz-adv-x="354" d="M41 1067q55 39 85 78t36 92q-39 2 -66.5 36t-27.5 75q0 43 33.5 76.5t78.5 33.5t79 -36t34 -93q0 -98 -61.5 -195.5t-147.5 -142.5z" />
<glyph unicode="&#x201a;" horiz-adv-x="354" d="M41 -170q55 39 85 79t36 93q-37 2 -65.5 35t-28.5 74q0 43 33.5 75.5t78.5 32.5q47 0 80 -34.5t33 -92.5q0 -98 -60.5 -195.5t-148.5 -142.5z" />
<glyph unicode="&#x201c;" horiz-adv-x="673" d="M61 1120q0 98 60.5 195.5t146.5 142.5l45 -78q-57 -41 -87.5 -77.5t-37.5 -90.5q39 -2 67 -34.5t28 -75.5t-33 -77t-78 -34q-47 0 -79 36t-32 93zM383 1120q0 98 59.5 195.5t147.5 142.5l43 -78q-57 -39 -87 -76.5t-34 -91.5q37 -4 64.5 -36.5t27.5 -73.5 q0 -43 -33.5 -77t-78.5 -34t-77 37t-32 92z" />
<glyph unicode="&#x201d;" horiz-adv-x="671" d="M41 1067q55 39 85 78t36 92q-39 2 -66.5 36t-27.5 75q0 43 33.5 76.5t78.5 33.5t79 -36t34 -93q0 -98 -61.5 -195.5t-147.5 -142.5zM360 1067q55 39 85 78t38 92q-39 2 -66.5 36t-27.5 75q0 43 33 76.5t78 33.5t77.5 -36t32.5 -93q0 -98 -60.5 -195.5t-146.5 -142.5z" />
<glyph unicode="&#x201e;" horiz-adv-x="671" d="M193 -168q55 41 84.5 79t35.5 91q-37 2 -65.5 35t-28.5 74q0 43 33 75.5t78 32.5q6 2 20 2q45 0 78 -36t33 -93q0 -98 -60.5 -195.5t-146.5 -142.5l-4 8l-17 -8z" />
<glyph unicode="&#x2022;" horiz-adv-x="485" d="M61 670q0 76 53.5 129t129.5 53t128 -53t52 -129q0 -74 -52.5 -126t-127.5 -52q-76 0 -129.5 52t-53.5 126z" />
<glyph unicode="&#x2026;" horiz-adv-x="950" d="M61 102q0 45 31 75t74 30t72.5 -30t29.5 -75q0 -43 -29.5 -72.5t-72.5 -29.5t-74 29.5t-31 72.5zM375 102q0 45 30.5 75t75.5 30q43 0 73 -30t30 -75q0 -43 -31 -72.5t-72 -29.5q-45 0 -75.5 29.5t-30.5 72.5zM682 102q0 45 30.5 75t73.5 30t73 -30t30 -75 q0 -43 -30 -72.5t-73 -29.5t-73.5 29.5t-30.5 72.5z" />
<glyph unicode="&#x202f;" horiz-adv-x="376" />
<glyph unicode="&#x2039;" horiz-adv-x="444" d="M61 453v98l297 285l45 -117l-208 -217l208 -217l-45 -115z" />
<glyph unicode="&#x203a;" horiz-adv-x="446" d="M41 285l213 217l-213 217l47 117l297 -285v-98l-297 -283z" />
<glyph unicode="&#x205f;" horiz-adv-x="470" />
<glyph unicode="&#x20ac;" horiz-adv-x="1224" d="M0 571h178q-6 59 -6 117q0 74 8 129h-160l-20 123h207q61 219 225 350t397 131q76 0 181.5 -21.5t165.5 -58.5l-52 -116q-82 31 -141 44t-156 13q-150 0 -268.5 -92t-175.5 -250h506l18 -123h-555q-10 -68 -10 -127q0 -68 8 -119h539l18 -125h-528q53 -154 164.5 -243.5 t267.5 -89.5q174 0 305 61l64 -123q-63 -33 -169 -56.5t-194 -23.5q-242 0 -399.5 130t-214.5 345h-183z" />
<glyph unicode="&#x2122;" horiz-adv-x="1495" d="M20 1288v105h594l13 -105h-242v-661h-129v661h-236zM733 627v766h53l291 -385l275 385h57v-766h-125v479l-190 -270l-33 -7l-201 281v-483h-127z" />
<glyph unicode="&#x25fc;" horiz-adv-x="1024" d="M0 0v1024h1024v-1024h-1024z" />
<glyph unicode="&#xfb01;" horiz-adv-x="1032" d="M33 977h151v156q0 139 75 222t204 83q41 0 82 -10.5t67 -24.5l-37 -131q-16 8 -42.5 14t-47.5 6q-139 0 -139 -170v-145h182l54 -123h-236v-1325h-162v1325h-149zM712 1300q0 47 31 79t78 32q45 0 77.5 -33t32.5 -78t-32.5 -76.5t-77.5 -31.5q-47 0 -78 30.5t-31 77.5z M741 0v993h164v-993h-164z" />
<glyph unicode="&#xfb02;" horiz-adv-x="1071" d="M33 977h151v156q0 139 75 222t204 83q41 0 82 -10.5t67 -24.5l-37 -131q-16 8 -42.5 14t-47.5 6q-139 0 -139 -170v-145h182l54 -123h-236v-1325h-162v1325h-149zM762 0v1425l161 21v-1446h-161z" />
</font>
</defs>
</svg>
